<svg xmlns="http://www.w3.org/2000/svg" width="143.307" height="49.436" viewBox="0 0 143.307 49.436"><g transform="translate(-235.297 -149.736)"><path d="M238.3,150.94h13.832v4.424h-8.12v3.444h6.469V162.9h-6.469v3.64h8.568v4.424H238.3Z" fill="#1a1818"/><path d="M259.688,163.512l-4.563-7.2h5.768l2.268,3.864,2.212-3.864h5.151l-4.62,6.8,5.069,7.84H265.2l-2.6-4.368-2.661,4.368h-5.124Z" fill="#1a1818"/><path d="M271.757,163.82V163.6c0-4.7,3.5-7.672,7.924-7.672,4,0,7.448,2.3,7.448,7.56V164.8h-10.3a2.925,2.925,0,0,0,3.053,3.052c1.651,0,2.352-.756,2.548-1.736h4.7c-.448,3.3-3,5.18-7.42,5.18C275.116,171.3,271.757,168.608,271.757,163.82Zm10.5-1.848c-.084-1.764-.952-2.744-2.576-2.744-1.512,0-2.548.98-2.8,2.744Z" fill="#1a1818"/><path d="M289.51,163.82V163.6c0-4.872,3.5-7.672,7.811-7.672,3.584,0,6.889,1.568,7.168,6.02h-4.7a2.163,2.163,0,0,0-2.351-2.128c-1.764,0-2.8,1.26-2.8,3.724v.224c0,2.548.979,3.864,2.884,3.864a2.438,2.438,0,0,0,2.547-2.436h4.508c-.139,3.7-2.632,6.1-7.363,6.1C292.842,171.3,289.51,168.748,289.51,163.82Z" fill="#1a1818"/><path d="M307.514,165.864v-9.548h5.011v8.736c0,1.652.645,2.464,2.073,2.464,1.511,0,2.492-.9,2.492-2.772v-8.428H322.1V170.96H317.09v-2.268a4.812,4.812,0,0,1-4.649,2.6C309.613,171.3,307.514,169.56,307.514,165.864Z" fill="#1a1818"/><path d="M326.749,166.256v-6.524h-1.765v-3.416h1.765v-3.052h5.012v3.052h2.884v3.416h-2.884v6.048a1.337,1.337,0,0,0,1.484,1.54,3.819,3.819,0,0,0,1.428-.252v3.808a10.525,10.525,0,0,1-2.773.42C328.6,171.3,326.749,169.7,326.749,166.256Z" fill="#1a1818"/><path d="M337.864,152.34a2.764,2.764,0,1,1,2.744,2.576A2.616,2.616,0,0,1,337.864,152.34Zm.252,3.976h5.012V170.96h-5.012Z" fill="#1a1818"/><path d="M345.983,156.316h5.349l3.052,9.436,3-9.436h4.788l-5.349,14.644h-5.46Z" fill="#1a1818"/><path d="M363.232,163.82V163.6c0-4.7,3.5-7.672,7.924-7.672,4,0,7.448,2.3,7.448,7.56V164.8H368.3a2.924,2.924,0,0,0,3.053,3.052c1.651,0,2.351-.756,2.547-1.736h4.7c-.448,3.3-3,5.18-7.419,5.18C366.592,171.3,363.232,168.608,363.232,163.82Zm10.5-1.848c-.084-1.764-.952-2.744-2.576-2.744-1.511,0-2.548.98-2.8,2.744Z" fill="#1a1818"/><path d="M235.3,178.816h13.832v4.424h-8.12v3.445h6.469v4.087h-6.469v3.64h8.568v4.424H235.3Z" fill="#1a1818"/><path d="M251.957,191.668v-.224c0-4.984,2.744-7.644,6.216-7.644a4.747,4.747,0,0,1,4.508,2.465v-8.513h5.012v21.084h-5.012v-2.38a4.935,4.935,0,0,1-4.564,2.716C254.729,199.172,251.957,196.736,251.957,191.668Zm10.864-.084v-.224c0-2.464-1.036-3.78-2.884-3.78-1.875,0-2.884,1.26-2.884,3.809v.223c0,2.464,1.093,3.724,2.828,3.724C261.7,195.336,262.821,194.076,262.821,191.584Z" fill="#1a1818"/><path d="M271.249,193.74v-9.548h5.012v8.736c0,1.652.644,2.465,2.072,2.465,1.512,0,2.492-.9,2.492-2.773v-8.428h5.012v14.644h-5.012v-2.268a4.812,4.812,0,0,1-4.648,2.6C273.349,199.172,271.249,197.437,271.249,193.74Z" fill="#1a1818"/><path d="M288.72,191.7v-.223c0-4.872,3.5-7.673,7.811-7.673,3.584,0,6.889,1.568,7.168,6.02h-4.7a2.163,2.163,0,0,0-2.351-2.128c-1.764,0-2.8,1.26-2.8,3.724v.225c0,2.547.979,3.863,2.884,3.863a2.438,2.438,0,0,0,2.547-2.436h4.508c-.139,3.7-2.632,6.1-7.363,6.1C292.052,199.172,288.72,196.624,288.72,191.7Z" fill="#1a1818"/><path d="M305.827,194.776c0-3.444,2.912-4.788,7.784-4.788h1.4v-.336c0-1.4-.336-2.324-1.933-2.324a1.8,1.8,0,0,0-1.987,1.736h-4.7c.223-3.528,3-5.264,7-5.264,4.032,0,6.607,1.652,6.607,5.544v9.492h-4.871v-1.708a4.81,4.81,0,0,1-4.341,2.044C308.151,199.172,305.827,197.884,305.827,194.776Zm9.185-1.064v-.9H313.7c-2.015,0-2.912.392-2.912,1.6,0,.84.561,1.372,1.737,1.372A2.207,2.207,0,0,0,315.012,193.712Z" fill="#1a1818"/><path d="M324.084,194.132v-6.524h-1.765v-3.416h1.765v-3.051H329.1v3.051h2.883v3.416H329.1v6.048a1.337,1.337,0,0,0,1.484,1.54,3.819,3.819,0,0,0,1.428-.252v3.808a10.525,10.525,0,0,1-2.773.42C325.932,199.172,324.084,197.576,324.084,194.132Z" fill="#1a1818"/><path d="M334.892,180.216a2.764,2.764,0,1,1,2.744,2.576A2.615,2.615,0,0,1,334.892,180.216Zm.252,3.976h5.011v14.644h-5.011Z" fill="#1a1818"/><path d="M343.18,191.7v-.223c0-4.7,3.5-7.673,8.036-7.673,4.508,0,7.979,2.885,7.979,7.532v.225c0,4.759-3.5,7.615-8.008,7.615S343.18,196.428,343.18,191.7Zm10.92-.084v-.223c0-2.465-.981-3.837-2.884-3.837-1.876,0-2.912,1.316-2.912,3.78v.225c0,2.519.979,3.891,2.912,3.891C353.092,195.448,354.1,194.048,354.1,191.612Z" fill="#1a1818"/><path d="M362.079,184.192h5.012v2.352a5.169,5.169,0,0,1,4.815-2.744c2.828,0,4.788,1.764,4.788,5.516v9.52h-5.011v-8.512c0-1.652-.644-2.464-2.1-2.464-1.484,0-2.492.9-2.492,2.772v8.2h-5.012Z" fill="#1a1818"/></g></svg>