<svg xmlns="http://www.w3.org/2000/svg" width="42" height="42" viewBox="0 0 42 42"><defs><style>.cls-1{fill:#ec1e24;}</style></defs><title>Recurso 1</title><g id="Capa_2" data-name="Capa 2"><g id="Layer_1" data-name="Layer 1"><path class="cls-1" d="M21,0A21,21,0,1,0,42,21,21,21,0,0,0,21,0Zm0,39.49A18.49,18.49,0,1,1,39.49,21,18.51,18.51,0,0,1,21,39.49Z"/><path class="cls-1" d="M36.56,17.94H34.75L36,16.62h0a3.25,3.25,0,0,0,.89-2.4A3.07,3.07,0,0,0,35.82,12a3.11,3.11,0,0,0-3.88,0,3.13,3.13,0,0,0-3.89,0,3.07,3.07,0,0,0-1.12,2.23,3.25,3.25,0,0,0,.9,2.4l1.29,1.32H15.36V12.56a1,1,0,0,0-1-1H8.57a1,1,0,0,0-1,1v5.38H5.44a1.51,1.51,0,0,0,0,3H19L14.45,33.16a1.5,1.5,0,0,0,1.41,2H26.14a1.5,1.5,0,0,0,1.41-2L23,21h13.6a1.51,1.51,0,0,0,0-3Zm-23.21-.59H9.57V13.56h3.78ZM24,32.19H18l3-7.91Zm5.17-16.87a1.37,1.37,0,0,1-.37-1,1.32,1.32,0,0,1,.47-.92,1.2,1.2,0,0,1,.75-.26,1.36,1.36,0,0,1,1,.42l.62.63a.51.51,0,0,0,.71,0l.62-.63a1.28,1.28,0,0,1,1.72-.16,1.26,1.26,0,0,1,.46.92,1.36,1.36,0,0,1-.36,1l-2.57,2.62h-.45Z"/></g></g></svg>