<svg xmlns="http://www.w3.org/2000/svg" width="41.914" height="41.914" viewBox="0 0 41.914 41.914"><path d="M1041.63,405.033a20.957,20.957,0,1,0,20.957,20.957A20.957,20.957,0,0,0,1041.63,405.033Zm-11.084,35.69a15.779,15.779,0,0,1,11.027-4.075,16.267,16.267,0,0,1,11.067,4.131,18.358,18.358,0,0,1-22.094-.056Zm4.3-21.811a2.657,2.657,0,0,1,.85-2.05,6.215,6.215,0,0,1,3.863-1.059v1.462h-1.372A4.249,4.249,0,0,0,1034.851,418.912Zm13.543.705a4.341,4.341,0,0,0-3.838-2.352h-.869V415.8a6.218,6.218,0,0,1,3.862,1.059,2.7,2.7,0,0,1,.859,2.162C1048.408,419.24,1048.4,419.425,1048.394,419.617Zm-11.949,1.779a1.762,1.762,0,0,1,1.747-1.631h6.364a1.837,1.837,0,0,1,1.824,1.7c.08,1.126.117,2.163.117,2.51a5.088,5.088,0,0,1-10.174,0C1036.323,423.609,1036.362,422.536,1036.445,421.4Zm4.078,10.01a6.982,6.982,0,0,0,2-.034v2.193h-2Zm14.038,7.744a18.4,18.4,0,0,0-10.038-4.773V430.8a7.506,7.506,0,0,0,4.4-5.846,2.564,2.564,0,0,0,.343-.227c1.1-.882,1.64-2.746,1.64-5.7a5.192,5.192,0,0,0-1.719-4.049c-2.477-2.164-6.74-1.612-6.92-1.588a.821.821,0,0,1-1.287,0c-.179-.024-4.444-.575-6.921,1.588a5.2,5.2,0,0,0-1.719,4.049c0,3.182.487,5.031,1.533,5.819l0,0a7.518,7.518,0,0,0,4.644,6.051v3.481a17.61,17.61,0,0,0-9.887,4.716,18.46,18.46,0,1,1,25.925.057Z" transform="translate(-1020.673 -405.033)" fill="#e60019"/></svg>