<?xml version="1.0" encoding="utf-8"?>
<!-- Generator: Adobe Illustrator 24.0.0, SVG Export Plug-In . SVG Version: 6.00 Build 0)  -->
<svg version="1.1" id="Layer_1" xmlns="http://www.w3.org/2000/svg" xmlns:xlink="http://www.w3.org/1999/xlink" x="0px" y="0px"
	 viewBox="0 0 454.9 478.4" style="enable-background:new 0 0 454.9 478.4;" xml:space="preserve">
<style type="text/css">
	.st0{fill:#FD0000;}
</style>
<g>
	<path class="st0" d="M406,144.8c-20-33.5-48.6-59.8-82.7-76.9l-6.9,27.5c68,37.2,105.2,117,85.5,195.7
		C378.5,384.5,283.5,441.4,190.1,418C96.7,394.5,39.8,299.5,63.2,206.1C83,127.5,153.5,74.7,231,74l6.9-27.5
		c-38.1-1.1-75.7,8.7-109.2,28.7C82.4,102.9,49.7,147,36.5,199.4c-13.1,52.4-5.1,106.7,22.6,153.1c27.7,46.3,71.9,79.1,124.2,92.2
		c52.4,13.1,106.7,5.1,153.1-22.6c46.3-27.7,79.1-71.9,92.2-124.2C441.8,245.5,433.8,191.1,406,144.8z"/>
	<g>
		<path class="st0" d="M288,64.3c3.8,2.6,3.5,6.3-0.6,8.3l-34.9,17.1c-4.1,2-10.9,5.3-15,7.3l-34.9,17.1c-4.1,2-7.2-0.1-6.9-4.7
			l2.7-38.8c0.3-4.6,0.8-12.1,1.2-16.7l2.7-38.8c0.3-4.6,3.7-6.2,7.5-3.7L242,33.3c3.8,2.6,10,6.8,13.8,9.3L288,64.3z"/>
	</g>
	<g>
		<path class="st0" d="M89.7,275.2l14.8-2c1.7,8.4,4.6,14.4,8.7,18.1c4.1,3.7,9,5.5,14.9,5.5c6.9,0,12.8-2.4,17.6-7.2
			c4.8-4.8,7.2-10.8,7.2-17.9c0-6.8-2.2-12.4-6.7-16.8c-4.4-4.4-10.1-6.6-16.9-6.6c-2.8,0-6.3,0.5-10.4,1.6l1.6-13
			c1,0.1,1.8,0.2,2.4,0.2c6.3,0,12-1.6,17-4.9c5-3.3,7.6-8.3,7.6-15.2c0-5.4-1.8-9.9-5.5-13.5c-3.7-3.6-8.4-5.3-14.2-5.3
			c-5.7,0-10.5,1.8-14.4,5.4c-3.8,3.6-6.3,9-7.4,16.3l-14.8-2.6c1.8-9.9,5.9-17.6,12.3-23c6.4-5.4,14.4-8.2,23.9-8.2
			c6.6,0,12.6,1.4,18.2,4.2c5.5,2.8,9.8,6.7,12.7,11.5c2.9,4.9,4.4,10,4.4,15.5c0,5.2-1.4,9.9-4.2,14.2c-2.8,4.3-6.9,7.7-12.4,10.2
			c7.1,1.6,12.6,5,16.6,10.2c3.9,5.2,5.9,11.6,5.9,19.4c0,10.5-3.8,19.4-11.5,26.7c-7.7,7.3-17.4,11-29.1,11
			c-10.6,0-19.3-3.1-26.3-9.4C94.6,293.4,90.7,285.2,89.7,275.2z"/>
		<path class="st0" d="M259.8,216.1l-14.7,1.1c-1.3-5.8-3.2-10-5.6-12.6c-4-4.2-8.9-6.3-14.8-6.3c-4.7,0-8.8,1.3-12.4,3.9
			c-4.7,3.4-8.3,8.3-11,14.9c-2.7,6.5-4.1,15.8-4.2,27.8c3.6-5.4,7.9-9.4,13.1-12.1c5.1-2.6,10.5-3.9,16.2-3.9
			c9.9,0,18.2,3.6,25.2,10.9c6.9,7.3,10.4,16.6,10.4,28.1c0,7.6-1.6,14.6-4.9,21.1c-3.3,6.5-7.7,11.5-13.4,14.9
			c-5.7,3.4-12.2,5.2-19.4,5.2c-12.3,0-22.4-4.5-30.1-13.6c-7.8-9.1-11.7-24-11.7-44.8c0-23.3,4.3-40.2,12.9-50.7
			c7.5-9.2,17.6-13.8,30.3-13.8c9.5,0,17.2,2.7,23.3,8C255,199.4,258.6,206.7,259.8,216.1z M199.5,268c0,5.1,1.1,10,3.2,14.6
			c2.2,4.7,5.2,8.2,9.1,10.6c3.9,2.4,8,3.7,12.2,3.7c6.2,0,11.6-2.5,16.1-7.6c4.5-5,6.7-11.9,6.7-20.5c0-8.3-2.2-14.9-6.6-19.7
			c-4.4-4.8-10-7.2-16.8-7.2c-6.7,0-12.3,2.4-17,7.2C201.8,253.9,199.5,260.2,199.5,268z"/>
		<path class="st0" d="M276.6,247.6c0-14.2,1.5-25.7,4.4-34.4c2.9-8.7,7.3-15.4,13.1-20.1c5.8-4.7,13-7.1,21.8-7.1
			c6.5,0,12.1,1.3,17,3.9c4.9,2.6,8.9,6.4,12.1,11.2c3.2,4.9,5.7,10.9,7.5,17.9c1.8,7,2.7,16.5,2.7,28.5c0,14.1-1.4,25.5-4.4,34.2
			c-2.9,8.7-7.2,15.4-13,20.1c-5.8,4.7-13.1,7.1-21.9,7.1c-11.6,0-20.7-4.2-27.3-12.5C280.6,286.5,276.6,270.2,276.6,247.6z
			 M291.8,247.6c0,19.8,2.3,32.9,6.9,39.5c4.6,6.5,10.3,9.8,17.1,9.8c6.8,0,12.5-3.3,17.1-9.9c4.6-6.6,6.9-19.7,6.9-39.4
			c0-19.8-2.3-33-6.9-39.5c-4.6-6.5-10.4-9.8-17.3-9.8c-6.8,0-12.2,2.9-16.3,8.6C294.4,214.3,291.8,227.9,291.8,247.6z"/>
	</g>
	<g>
		<path class="st0" d="M363.2,195.9c-8.9,0-16.2-7.3-16.2-16.2c0-8.9,7.3-16.2,16.2-16.2c8.9,0,16.2,7.3,16.2,16.2
			C379.4,188.6,372.2,195.9,363.2,195.9z M363.2,169c-5.9,0-10.7,4.8-10.7,10.7c0,5.9,4.8,10.7,10.7,10.7c5.9,0,10.7-4.8,10.7-10.7
			C373.9,173.8,369.1,169,363.2,169z"/>
	</g>
</g>
</svg>
