<svg xmlns="http://www.w3.org/2000/svg" width="41.914" height="41.914" viewBox="0 0 41.914 41.914"><g transform="translate(-226 -15)"><g transform="translate(-717.14 -290.456)"><path d="M964.1,305.456a20.957,20.957,0,1,0,20.957,20.957A20.957,20.957,0,0,0,964.1,305.456Zm0,39.414a18.457,18.457,0,1,1,18.457-18.457A18.457,18.457,0,0,1,964.1,344.87Z" fill="#e60019"/><path d="M964.1,312.01a9.918,9.918,0,0,0-5.315,18.291l.57,7.987h9.488l.571-7.988a9.917,9.917,0,0,0-5.314-18.29Zm3.285,17.063-.507,7.1h-5.558l-.507-7.1-.809-.5a7.794,7.794,0,0,1-3.71-6.646,7.8,7.8,0,1,1,14.593,3.858,7.869,7.869,0,0,1-2.693,2.788Z" fill="#e60019"/><rect width="9.022" height="1.289" transform="translate(959.586 339.327)" fill="#e60019"/><rect width="9.022" height="2.489" rx="1.244" transform="translate(959.586 339.327)" fill="#e60019"/><ellipse cx="13.965" cy="2.744" rx="13.965" ry="2.744" transform="translate(950.132 320.192)" stroke-width="2.5" stroke="#e60019" stroke-linecap="round" stroke-linejoin="round" fill="none"/></g></g></svg>