<?xml version="1.0" encoding="utf-8"?>
<!-- Generator: Adobe Illustrator 23.0.1, SVG Export Plug-In . SVG Version: 6.00 Build 0)  -->
<svg version="1.1" id="Layer_1" xmlns="http://www.w3.org/2000/svg" xmlns:xlink="http://www.w3.org/1999/xlink" x="0px" y="0px"
	 viewBox="0 0 51 51" style="enable-background:new 0 0 51 51;" xml:space="preserve">
<style type="text/css">
	.st0{fill:#ED2024;}
</style>
<g transform="translate(0)">
	<path class="st0" d="M25.5,51C11.4,51,0,39.6,0,25.5C0,11.4,11.4,0,25.5,0C39.6,0,51,11.4,51,25.5C51,39.6,39.6,51,25.5,51z
		 M25.5,1.5c-13.2,0-24,10.8-24,24s10.8,24,24,24s24-10.8,24-24S38.7,1.5,25.5,1.5z"/>
	<path class="st0" d="M18.1,42.5c-0.4,0-0.8-0.1-1.2-0.3c-1.1-0.6-1.8-1.8-1.8-3.1V12c0-1.4,0.7-2.6,1.7-3.1
		c0.9-0.5,1.9-0.4,2.8,0.2L39,22.6c0.8,0.6,1.3,1.5,1.4,2.5c0.1,1-0.2,2-0.8,2.8c-0.2,0.2-0.3,0.4-0.6,0.6L19.6,42
		C19.1,42.3,18.6,42.5,18.1,42.5z M18.1,10c-0.2,0-0.4,0.1-0.5,0.1c-0.6,0.3-0.9,1-0.9,1.8v27c0,0.8,0.4,1.5,0.9,1.8
		c0.3,0.1,0.7,0.2,1.2-0.1l19.3-13.5c0.1-0.1,0.2-0.2,0.3-0.3c0.4-0.5,0.6-1.1,0.5-1.7c-0.1-0.6-0.3-1.1-0.8-1.5L18.7,10.3
		C18.5,10.1,18.3,10,18.1,10z"/>
</g>
</svg>
