<svg xmlns="http://www.w3.org/2000/svg" width="82.2" height="84.548" viewBox="0 0 82.2 84.548"><path d="M1605.641,1030.008a13.135,13.135,0,0,0-11.372,6.59l-31.98-13.821a13.136,13.136,0,1,0-12.647,9.335l3.535,32.337a13.144,13.144,0,1,0,14.5,6.642l28.074-19.321a13.13,13.13,0,1,0,9.886-21.762Zm-66.063-11.03a10.138,10.138,0,1,1,10.138,10.138A10.149,10.149,0,0,1,1539.578,1018.978Zm16.507,68.411a10.138,10.138,0,1,1,10.138-10.138A10.15,10.15,0,0,1,1556.085,1087.389Zm9.886-18.762a13.1,13.1,0,0,0-9.812-4.51l-3.535-32.337a13.169,13.169,0,0,0,8.464-6.254l31.981,13.821a13.072,13.072,0,0,0,.976,9.959Zm39.67-15.343a10.138,10.138,0,1,1,10.137-10.138A10.149,10.149,0,0,1,1605.641,1053.284Z" transform="translate(-1536.578 -1005.841)" fill="#ec2426"/></svg>