<svg xmlns="http://www.w3.org/2000/svg" width="58.397" height="75" viewBox="0 0 58.397 75"><g transform="translate(0 0)"><g transform="translate(0 0)"><path d="M28.546,1.875c.537,0,1.075.012,1.587.05A26.223,26.223,0,0,1,41.444,5.487a31.356,31.356,0,0,1,7.461,5.8,14.938,14.938,0,0,1,4.2,10.686,58.817,58.817,0,0,1-.8,7.974,7.8,7.8,0,0,0,.812,4.924c.35.675.725,1.325,1.087,1.987.35.637.712,1.275,1.05,1.925l.05.087.05.087a6.973,6.973,0,0,1,1.15,3.262c-3.449,2.45-4.524,6.161-5.062,9.136-.312,1.737-.55,3.5-.787,5.2-.087.6-.162,1.212-.25,1.812l-.012.112v.112a1.391,1.391,0,0,1-1.175,1.35h-.037l-.037.012a12.341,12.341,0,0,1-2.45.25,12.985,12.985,0,0,1-1.837-.137l-.05-.012h-.05l-1.125-.112c-1.262-.137-2.575-.275-3.912-.3h-.075a6.513,6.513,0,0,0-5.224,2.725,29.731,29.731,0,0,0-5.1,9.923,1.511,1.511,0,0,0-.062.225c-.262-.225-.512-.45-.75-.687q-3.843-3.693-7.7-7.361c-2.375-2.262-4.737-4.524-7.124-6.811l-1.75-1.637c1.1-4.187-.387-7.736-2.012-10.711A77.81,77.81,0,0,0,5.45,38.381a18.774,18.774,0,0,1-3.512-9.173,23.862,23.862,0,0,1,1.05-9.361A21.431,21.431,0,0,1,8.2,10.861,31.476,31.476,0,0,1,18.311,3.987,25.793,25.793,0,0,1,28.546,1.875m-.562,10.111A2.581,2.581,0,0,0,24.81,13.26c-.337.512-.687,1.025-1.012,1.562a3.31,3.31,0,0,0-.637,2.25,2.254,2.254,0,0,0-1.712-.787h-.162c-.212-1.237-1.2-1.725-2.212-2.025a2.783,2.783,0,0,0-.4-.112l-.262-.075-.062-.025-.062-.012a4.7,4.7,0,0,0-1.175-.187,2.258,2.258,0,0,0-1.812.825,2.166,2.166,0,0,0-1.287-.412,3.527,3.527,0,0,0-1.712.562,4.219,4.219,0,0,0-.512.3c-.062.037-.112.075-.187.112l-.062.037-.062.037c-1.175.712-1.7,1.512-1.587,2.512A2.661,2.661,0,0,0,7.862,20.1a7.091,7.091,0,0,0-.25.837A2.565,2.565,0,0,0,8.337,23.9c-.662.937-.55,1.862.237,3.249a2.5,2.5,0,0,0,.2.35.717.717,0,0,1,.05.087l.025.05.025.05a2.64,2.64,0,0,0,2.275,1.6,1.075,1.075,0,0,0,.2-.012c.187.987.912,1.6,2.25,1.962l.1.025.1.012c.137.025.262.05.4.087l.037.012.037.012a4.555,4.555,0,0,0,1.262.225,2.232,2.232,0,0,0,1.825-.862,2.427,2.427,0,0,0,.875.387,1.793,1.793,0,0,0-.05.275,3.231,3.231,0,0,1-.112.5,1.746,1.746,0,0,0-.112.362,2.4,2.4,0,0,0,.325,1.862,1.906,1.906,0,0,0,.137.2,2.368,2.368,0,0,0,.162,2.25c.05.1.1.2.162.3a2.644,2.644,0,0,1,.137.262,2.054,2.054,0,0,0,.262.487,2.566,2.566,0,0,0,1.837,1.112,2.443,2.443,0,0,0,1.737,1.5c.175.05.362.1.537.15.125.037.262.075.35.1a2.523,2.523,0,0,0,.787.125,2.306,2.306,0,0,0,1.462-.512,2.229,2.229,0,0,0,1.012.237,2.507,2.507,0,0,0,1.425-.462c.212-.15.437-.287.675-.425a.709.709,0,0,0,.162-.1,2.463,2.463,0,0,0,1.1-1.537c.012-.075.037-.162.05-.237.075-.025.137-.062.212-.087l.35.35.387-.912a2.331,2.331,0,0,0,.525-1,7.9,7.9,0,0,0,.225-.775,2.5,2.5,0,0,0-.012-2,2.669,2.669,0,0,0-.337-.537,1.977,1.977,0,0,0,.15-.462,2.442,2.442,0,0,0-.237-1.675,3.474,3.474,0,0,0,.537-.387,2.775,2.775,0,0,0,2.512,1.4H35l.175-.05c.212-.05.45-.1.712-.162.35-.075.725-.15,1.062-.237,1.75-.412,2.562-1.2,2.612-2.65a2.634,2.634,0,0,0,.912.162,2.736,2.736,0,0,0,2.287-1.4c.4-.575.75-1.15,1.075-1.662a3.132,3.132,0,0,0,.587-2.45,2.556,2.556,0,0,0-.637-1.162,2.5,2.5,0,0,0,1.137-1.137,2.67,2.67,0,0,0,.037-2.125c-.05-.225-.1-.437-.162-.65-.062-.25-.125-.512-.187-.775-.225-.95-.637-2.725-2.65-2.75a2.615,2.615,0,0,0-1.25-3.174c-.475-.337-.975-.662-1.487-.962a3.8,3.8,0,0,0-2.062-.775,2.45,2.45,0,0,0-1.687.675,2.511,2.511,0,0,0-2.337-1.387,4.3,4.3,0,0,0-.9.112l-.787.187c-.25.062-.512.125-.825.2-1.775.45-2.587,1.237-2.637,2.662M24.7,25.833a2.613,2.613,0,0,0,.812.15c-.037.125-.062.237-.087.362a2.424,2.424,0,0,0-1.175.475,3.014,3.014,0,0,0,.437-.925.094.094,0,0,1,.012-.062M28.546,0A27.411,27.411,0,0,0,17.573,2.287a33.432,33.432,0,0,0-10.7,7.274A23.429,23.429,0,0,0,1.2,19.347,25.978,25.978,0,0,0,.089,29.383,20.674,20.674,0,0,0,3.951,39.506a79.668,79.668,0,0,1,4.362,6.749c1.65,3,2.8,6.124,1.725,9.661a1.213,1.213,0,0,0,.45,1.312l1.937,1.812c4.937,4.724,9.873,9.423,14.81,14.148C27.9,73.8,28.6,74.375,29.246,75h.862c.737-.5.787-1.362,1.025-2.137a27.723,27.723,0,0,1,4.812-9.373,4.622,4.622,0,0,1,3.737-1.975c1.65.037,3.249.25,4.9.412a15.023,15.023,0,0,0,2.112.162,14.344,14.344,0,0,0,2.825-.287,3.265,3.265,0,0,0,2.75-3.162c.325-2.3.612-4.649,1.025-6.949.575-3.124,1.6-6.049,4.362-7.974a1.865,1.865,0,0,0,.737-1.525,8.772,8.772,0,0,0-1.475-4.287c-.7-1.312-1.437-2.587-2.137-3.912a5.886,5.886,0,0,1-.612-3.737,60.5,60.5,0,0,0,.825-8.224A16.771,16.771,0,0,0,50.268,9.986a33.568,33.568,0,0,0-7.9-6.124A27.983,27.983,0,0,0,30.284.062C29.709.012,29.134,0,28.546,0Zm.225,14.323c.325,0,.612-.2,1.05-.612.25-.25.162-.537.125-.825-.25-1.275-.125-1.437,1.15-1.775.537-.125,1.025-.25,1.562-.375a2.365,2.365,0,0,1,.475-.062c.475,0,.737.237.8.837.125.862.575,1.112,1.312,1.237a.713.713,0,0,0,.162.012.87.87,0,0,0,.775-.462c.387-.625.625-.912.962-.912a2.357,2.357,0,0,1,1.087.5,14.821,14.821,0,0,1,1.4.9c.7.45.737.737.325,1.475a1.346,1.346,0,0,0,.137,1.9,1.836,1.836,0,0,0,.162.125.764.764,0,0,0,.487.162.866.866,0,0,0,.25-.037,5.092,5.092,0,0,1,.9-.112c.55,0,.637.3.875,1.312.125.537.25,1.025.375,1.562.287.662.075,1-.662,1.2-1.025.287-1.237.575-1.275,1.6,0,.45.325.537.612.737.9.575.987.862.412,1.762-.325.537-.662,1.075-1.025,1.6-.262.412-.475.587-.75.587a1.591,1.591,0,0,1-.737-.262,1.9,1.9,0,0,0-.95-.35,1.588,1.588,0,0,0-1.062.6c-.25.25-.162.537-.125.825.25,1.275.162,1.437-1.075,1.725-.662.162-1.312.287-1.812.412H34.57a.912.912,0,0,1-1.025-.862,1.47,1.47,0,0,0-1.437-1.225,1.531,1.531,0,0,0-.237.025.094.094,0,0,0-.05.012c-.375.037-.45.375-.575.575-.337.525-.587.775-.925.775a2,2,0,0,1-.925-.362c-.537-.325-1.025-.662-1.562-.987-.7-.45-.787-.787-.325-1.525a1.324,1.324,0,0,0-.137-1.862,1.561,1.561,0,0,0-.15-.112.688.688,0,0,0-.437-.15.628.628,0,0,0-.3.075,5.7,5.7,0,0,1-.85.112c-.562,0-.675-.312-.912-1.3-.125-.537-.25-1.025-.375-1.562-.125-.787.037-1.075.825-1.275,1.025-.287,1.15-.537,1.187-1.562,0-.45-.325-.575-.575-.737-.9-.612-.987-.95-.412-1.85.325-.537.662-1.025.987-1.525.262-.412.475-.587.737-.587a1.437,1.437,0,0,1,.7.262,2.193,2.193,0,0,0,.975.362Zm-13.41,2.862a1.094,1.094,0,0,0,.2-.025c.375-.087.7-.125.825-.575.225-.65.35-.862.725-.862a3.408,3.408,0,0,1,.712.125c.25.087.45.125.7.2.987.287,1.075.375.862,1.362a.84.84,0,0,0,.412.9.727.727,0,0,0,.537.225.842.842,0,0,0,.375-.1,1.847,1.847,0,0,1,.75-.287c.25,0,.4.212.687.7.162.25.287.5.45.737.5.825.45.987-.325,1.525a.886.886,0,0,0-.375.95.776.776,0,0,0,.575.737c.9.287.95.412.737,1.312-.125.412-.212.862-.325,1.275-.075.3-.262.537-.512.537H22.31c-.312-.025-.6-.162-.875-.162a.693.693,0,0,0-.562.287c-.325.412-.5.787-.125,1.237.375.487.212.862-.287,1.15-.25.162-.487.287-.737.45a2.447,2.447,0,0,1-.975.437c-.275,0-.487-.237-.912-.762a.964.964,0,0,0-.675-.25,1,1,0,0,0-.75.337,1.133,1.133,0,0,0-.137.2c-.25.662-.362.9-.725.9a3.747,3.747,0,0,1-.762-.15,4.38,4.38,0,0,0-.7-.162c-.95-.25-1.025-.325-.825-1.312.125-.5-.162-.7-.487-.95a.633.633,0,0,0-.475-.2.657.657,0,0,0-.437.162,1.649,1.649,0,0,1-.7.287c-.237,0-.387-.2-.65-.662-.087-.162-.212-.325-.287-.5-.662-1.15-.662-1.15.325-1.975a.984.984,0,0,0-.137-1.375.9.9,0,0,0-.237-.137c-.9-.325-.987-.45-.737-1.4a3.475,3.475,0,0,1,.212-.7c.2-.762.262-1,.687-1a3.949,3.949,0,0,1,.712.1.769.769,0,0,0,.162.012c.337,0,.525-.225.737-.462a.755.755,0,0,0,.087-.95c-.45-.825-.412-.95.412-1.437.25-.125.45-.287.7-.412a2.256,2.256,0,0,1,.862-.362c.237,0,.387.212.737.7a.694.694,0,0,0,.612.325Zm9.073,12.123c.275,0,.525-.2.662-.6.15-.362.337-.525.612-.525a.921.921,0,0,1,.337.075l.862.25c.375.125.537.325.45.7-.062.687.137,1.05.575,1.05a1.452,1.452,0,0,0,.575-.15.57.57,0,0,1,.275-.075.545.545,0,0,1,.462.262c.013.025.025.037.037.062.162.287.325.537.5.825.287.412.25.737-.25,1.025a.706.706,0,0,0-.312.95.7.7,0,0,0,.475.362c.625.2.712.537.5,1.025h0a6.812,6.812,0,0,1-.25.862.523.523,0,0,1-.512.45h-.075a.235.235,0,0,1-.1-.025A2.291,2.291,0,0,0,29,35.807c-.675,0-.925.437-.637,1.125a.608.608,0,0,1-.2.837.1.1,0,0,1-.05.025,7.65,7.65,0,0,0-.862.537.693.693,0,0,1-.362.137.646.646,0,0,1-.5-.337,1.012,1.012,0,0,0-.737-.487c-.262,0-.512.212-.712.65-.125.287-.287.45-.537.45a1.01,1.01,0,0,1-.25-.037c-.287-.087-.612-.162-.9-.25-.45-.125-.612-.325-.537-.862a.68.68,0,0,0-.412-.887.785.785,0,0,0-.237-.037.661.661,0,0,0-.375.112.687.687,0,0,1-.4.125.719.719,0,0,1-.587-.312.633.633,0,0,1-.087-.187c-.125-.25-.287-.537-.412-.787a.5.5,0,0,1,.075-.7.3.3,0,0,1,.137-.075c.7-.537.662-1.112-.162-1.437a.59.59,0,0,1-.45-.712.448.448,0,0,1,.05-.137,7.158,7.158,0,0,0,.2-.862.66.66,0,0,1,.65-.575h.075a.285.285,0,0,1,.137.037,1.377,1.377,0,0,0,.225.025.686.686,0,0,0,.65-1.05A.711.711,0,0,1,22,29.145a.474.474,0,0,1,.162-.075l.612-.375a.862.862,0,0,1,.462-.162c.187,0,.35.112.525.375a.876.876,0,0,0,.675.4Z" transform="translate(0.005)" fill="#fb5151"/></g><path d="M28.357,13.87a3.507,3.507,0,1,0,0,7.014h.11a3.705,3.705,0,0,0,3.507-3.554A3.756,3.756,0,0,0,28.357,13.87Z" transform="translate(5.366 3.111)" fill="#fb5151"/><path d="M13.974,16.53a2.579,2.579,0,0,0-2.583,2.552v.078a2.545,2.545,0,0,0,2.427,2.63h.141a2.63,2.63,0,0,0,.016-5.261Z" transform="translate(2.576 3.819)" fill="#fb5151"/><path d="M20.8,25.551a1.894,1.894,0,0,0-2,1.785v.125a2.1,2.1,0,0,0,1.957,2.067,1.929,1.929,0,0,0,2-1.863v-.094A2.012,2.012,0,0,0,20.8,25.551Z" transform="translate(4.362 6.024)" fill="#fb5151"/></g></svg>