<?xml version="1.0" encoding="utf-8"?>
<!-- Generator: Adobe Illustrator 23.0.1, SVG Export Plug-In . SVG Version: 6.00 Build 0)  -->
<svg version="1.1" id="Layer_1" xmlns="http://www.w3.org/2000/svg" xmlns:xlink="http://www.w3.org/1999/xlink" x="0px" y="0px"
	 viewBox="0 0 66.2 84.3" style="enable-background:new 0 0 66.2 84.3;" xml:space="preserve">
<style type="text/css">
	.st0{fill:#EC2426;}
</style>
<g transform="translate(0.003 0.002)">
	<g transform="translate(0.03 0.042)">
		<g transform="translate(-0.03 -0.042)">
			<path class="st0" d="M34.1,84.3h-0.9c-0.3,0-0.6-0.1-0.9-0.3c-0.4-0.3-0.7-0.6-1.1-1c-0.4-0.3-0.8-0.7-1.1-1
				c-2.7-2.6-5.4-5.2-8.1-7.7c-2.7-2.6-5.4-5.1-8.1-7.7l-2.1-1.9c-0.8-0.6-1.2-1.7-0.9-2.7c1.1-3.6-0.2-6.7-1.8-9.6
				c-1.4-2.5-3-4.9-4.7-7.2c-2.5-3.4-4-7.4-4.5-11.6c-0.3-3.9,0.1-7.7,1.3-11.4c1.2-4.2,3.4-8,6.5-11.2c3.5-3.5,7.5-6.3,12.1-8.2
				c4.5-2,9.5-2.8,14.4-2.5c4.8,0.4,9.6,1.9,13.7,4.3c3.3,1.8,6.3,4.2,8.9,6.9c3.6,3.7,5.6,8.8,5.5,14c-0.1,3.1-0.4,6.1-0.9,9.1
				c-0.2,1.1,0,2.3,0.5,3.3c0.4,0.7,0.7,1.4,1.1,2c0.4,0.7,0.8,1.5,1.2,2.2c1,1.6,1.7,3.4,1.8,5.2c0,1.1-0.5,2.1-1.3,2.7
				c-2.9,2-3.8,5.1-4.3,7.9c-0.3,1.8-0.6,3.6-0.8,5.4c-0.1,0.7-0.2,1.4-0.3,2.1c-0.1,2.3-1.8,4.2-4.1,4.6c-1.9,0.4-3.8,0.4-5.8,0.1
				l-1.1-0.1c-1.4-0.1-2.7-0.3-4-0.3c-1.2,0-2.3,0.6-3,1.6c-2.3,3-4,6.3-5.1,9.9c-0.1,0.2-0.1,0.4-0.1,0.5c-0.2,0.8-0.5,1.8-1.5,2.5
				C34.6,84.2,34.3,84.3,34.1,84.3z M32.4,2.5c-3.9,0-7.9,0.8-11.5,2.4c-4.3,1.8-8,4.4-11.3,7.7c-2.8,2.8-4.8,6.3-5.9,10.1
				c-1.1,3.4-1.5,6.9-1.2,10.5c0.4,3.7,1.7,7.3,4,10.4c1.7,2.4,3.4,4.9,4.8,7.5c1.8,3.2,3.3,7.1,2,11.5c0,0,0.1,0.1,0.1,0.2l2.1,2
				c2.7,2.6,5.4,5.2,8.1,7.7c2.7,2.6,5.4,5.1,8.1,7.7c0.3,0.3,0.7,0.6,1.1,0.9c0.2,0.2,0.5,0.4,0.7,0.6c0.1-0.2,0.2-0.4,0.2-0.8
				c0.1-0.2,0.1-0.4,0.2-0.7c1.1-3.9,3-7.4,5.5-10.6c1.1-1.6,3-2.6,5-2.6c1.5,0,2.9,0.2,4.3,0.3l1.2,0.1c1.7,0.3,3.4,0.2,5-0.1
				c1.2-0.2,2-1.1,2-2.2c0-0.1,0-0.1,0-0.2c0.1-0.7,0.2-1.4,0.3-2.1c0.2-1.8,0.5-3.7,0.8-5.5c0.6-3.1,1.7-7,5.3-9.5
				c0.2-0.1,0.3-0.4,0.3-0.6c-0.1-1.4-0.6-2.8-1.4-4c0,0,0-0.1-0.1-0.1c-0.4-0.7-0.8-1.5-1.2-2.2c-0.4-0.7-0.8-1.4-1.1-2.1
				c-0.8-1.5-1.1-3.2-0.8-4.9c0.5-2.9,0.8-5.9,0.9-8.8c0.1-4.5-1.7-9-4.8-12.2c-2.4-2.6-5.2-4.7-8.3-6.5c-3.9-2.3-8.2-3.6-12.7-4
				C33.6,2.5,33,2.5,32.4,2.5z"/>
		</g>
	</g>
	<path class="st0" d="M33.8,32.7H20.1c-0.6,0-1.1-0.5-1.1-1.1V19.8c0-0.6,0.5-1.1,1.1-1.1h13.6c0.6,0,1.1,0.5,1.1,1.1v11.9
		C34.8,32.3,34.3,32.7,33.8,32.7z M21.2,30.6h11.5v-9.7H21.2V30.6z"/>
	<rect x="25" y="23.8" class="st0" width="3.8" height="3.8"/>
	<polygon class="st0" points="48.1,35.3 42.6,35.3 42.6,24.8 33.8,24.8 33.8,22.8 44.6,22.8 44.6,33.3 48.1,33.3 	"/>
	<path class="st0" d="M50.2,37.9c-2.3,0-4.1-1.8-4.1-4.1c0-2.3,1.8-4.1,4.1-4.1c2.3,0,4.1,1.8,4.1,4.1
		C54.3,36.1,52.4,37.9,50.2,37.9z M50.2,31.7c-1.2,0-2.1,0.9-2.1,2.1s0.9,2.1,2.1,2.1c1.2,0,2.1-0.9,2.1-2.1S51.3,31.7,50.2,31.7z"
		/>
	<path class="st0" d="M42.2,17.6c-2.3,0-4.1-1.8-4.1-4.1s1.8-4.1,4.1-4.1c2.3,0,4.1,1.8,4.1,4.1S44.4,17.6,42.2,17.6z M42.2,11.4
		c-1.2,0-2.1,0.9-2.1,2.1s0.9,2.1,2.1,2.1c1.2,0,2.1-0.9,2.1-2.1S43.3,11.4,42.2,11.4z"/>
	<path class="st0" d="M15,46.3c-2.3,0-4.1-1.8-4.1-4.1S12.7,38,15,38c2.3,0,4.1,1.8,4.1,4.1S17.2,46.3,15,46.3z M15,40
		c-1.2,0-2.1,0.9-2.1,2.1s0.9,2.1,2.1,2.1s2.1-0.9,2.1-2.1S16.1,40,15,40z"/>
	<polygon class="st0" points="29.9,43.1 17,43.1 17,41.1 27.9,41.1 27.9,31.7 29.9,31.7 	"/>
	<polygon class="st0" points="28,19.8 26,19.8 26,12.5 39.1,12.5 39.1,14.5 28,14.5 	"/>
</g>
</svg>
