<svg xmlns="http://www.w3.org/2000/svg" width="41.914" height="41.914" viewBox="0 0 41.914 41.914"><path d="M1036.091,490.872a20.937,20.937,0,0,0-14.3,36.251,1.253,1.253,0,0,0,.378.379c.025.015.052.021.077.034a20.948,20.948,0,1,0,13.842-36.664Zm-11.576,35.322a14.469,14.469,0,0,1,23.137.012,18.42,18.42,0,0,1-23.137-.012Zm24.993-1.716a16.513,16.513,0,0,0-12.166-6.509v-6.2a9.764,9.764,0,0,0,5.437,1.93h.118c2.661,0,5.158-1.31,7.423-3.895a1.25,1.25,0,0,0-.146-1.79c-5.566-4.573-10.272-3.108-12.863-1.547a1.216,1.216,0,0,0-.264-.625,9.85,9.85,0,0,0-2.514-5.444c-1.884-1.94-4.6-2.811-8.086-2.579a1.251,1.251,0,0,0-1.162,1.369c.843,8.611,6.969,10.187,9.557,10.467v8.312a16.426,16.426,0,0,0-12.165,6.514,18.457,18.457,0,1,1,26.831,0Zm-11.6-15.449c1.563-1.182,5.065-2.95,9.589.1a6.789,6.789,0,0,1-4.6,2.069h-.064A7.988,7.988,0,0,1,1037.907,509.029Zm-3.231-1.885c-1.94-.271-5.666-1.5-6.708-6.852a6.756,6.756,0,0,1,4.761,1.837A7.975,7.975,0,0,1,1034.676,507.144Z" transform="translate(-1015.134 -490.872)" fill="#e60019"/></svg>