<svg xmlns="http://www.w3.org/2000/svg" width="41.914" height="41.914" viewBox="0 0 41.914 41.914"><g transform="translate(-943.256 -169.218)"><path d="M964.213,169.218a20.957,20.957,0,1,0,20.957,20.957A20.957,20.957,0,0,0,964.213,169.218Zm0,39.414a18.457,18.457,0,1,1,18.457-18.457A18.458,18.458,0,0,1,964.213,208.632Z" fill="#e60019"/><path d="M964.214,175.468a9.687,9.687,0,0,0-6.079,17.236v10.928a1.249,1.249,0,0,0,1.969,1.022l3.9-2.739,4.373,2.772a1.249,1.249,0,0,0,1.919-1.055V192.7a9.687,9.687,0,0,0-6.078-17.236Zm3.578,25.891-3.159-2a1.25,1.25,0,0,0-1.388.033l-2.61,1.835v-7.061a9.592,9.592,0,0,0,7.157,0Zm-3.578-9a7.194,7.194,0,1,1,7.194-7.195A7.2,7.2,0,0,1,964.214,192.357Z" fill="#e60019"/></g></svg>