<?xml version="1.0" encoding="utf-8"?>
<!-- Generator: Adobe Illustrator 23.0.1, SVG Export Plug-In . SVG Version: 6.00 Build 0)  -->
<svg version="1.1" id="Layer_1" xmlns="http://www.w3.org/2000/svg" xmlns:xlink="http://www.w3.org/1999/xlink" x="0px" y="0px"
	 viewBox="0 0 77.8 73.4" style="enable-background:new 0 0 77.8 73.4;" xml:space="preserve">
<style type="text/css">
	.st0{fill:#EC2426;}
</style>
<g>
	<path class="st0" d="M74.7,36.2c0-28.4-31.2-31-31.5-31c-0.2,0-0.4,0-0.6,0.1V0l-5.8,6.6l5.8,5.8V7.6c0.1,0,0.2,0.1,0.4,0.1
		c1.2,0.1,29.2,2.4,29.2,28.5c0,25.7-24.1,29.5-26,29.7H1.3C0.6,66,0,66.5,0,67.2s0.6,1.3,1.3,1.3h45c0.1,0,0.1,0,0.2,0
		C46.7,68.4,74.7,64.6,74.7,36.2z"/>
	<path class="st0" d="M77.8,66.9l-5.8-5.8V66h-11c-0.7,0-1.3,0.6-1.3,1.3s0.6,1.3,1.3,1.3h11v4.9L77.8,66.9z"/>
	<path class="st0" d="M22.1,63.8c0.1,0.1,0.3,0.1,0.4,0.1c0.5,0,1-0.3,1.2-0.8c0.2-0.6-0.1-1.4-0.7-1.6c-0.1,0-13.4-5.1-13.4-23.4
		c0-23.3,18.9-28.6,19.7-28.8c0.7-0.2,1.1-0.9,0.9-1.5C30,7,29.4,6.6,28.7,6.8C28.5,6.9,7.1,12.8,7.1,38C7.1,58,22,63.7,22.1,63.8z"
		/>
</g>
</svg>
