<svg xmlns="http://www.w3.org/2000/svg" width="68.002" height="71.773" viewBox="0 0 68.002 71.773"><g transform="translate(0 20.57)"><path d="M59.751,2.016A1.752,1.752,0,0,1,61.5,3.763V49.2H51.123V3.763A1.752,1.752,0,0,1,52.87,2.016h6.881M37.522,22.242a1.752,1.752,0,0,1,1.747,1.747V49.2H28.894V24a1.752,1.752,0,0,1,1.747-1.747h6.881M15.294,34.015a1.752,1.752,0,0,1,1.747,1.747V49.2H6.679V35.762a1.752,1.752,0,0,1,1.747-1.747h6.867M59.751,0H52.87a3.757,3.757,0,0,0-3.763,3.763V48.435H41.285V23.989a3.757,3.757,0,0,0-3.763-3.763H30.641a3.757,3.757,0,0,0-3.763,3.763V48.435H19.057V35.762A3.757,3.757,0,0,0,15.294,32H8.426a3.757,3.757,0,0,0-3.763,3.763V48.435H1.4A1.385,1.385,0,0,0,0,49.819H0A1.4,1.4,0,0,0,1.4,51.2H66.6a1.4,1.4,0,1,0,0-2.8H63.514V3.763A3.765,3.765,0,0,0,59.751,0Z" fill="#fb5151"/></g><g transform="translate(12.031)"><g transform="translate(0)"><path d="M50.086,0H41.458a1.382,1.382,0,0,0-1.384,1.384h0a1.4,1.4,0,0,0,1.384,1.384h5.228L32.8,16.665l-5.228-5.228a1.386,1.386,0,0,0-.981-.417,1.4,1.4,0,0,0-.954.39l-.027.027L.428,36.662a1.4,1.4,0,0,0-.04,1.962l.04.04a1.453,1.453,0,0,0,.981.417,1.363,1.363,0,0,0,.981-.417L26.608,14.447l5.228,5.228a1.362,1.362,0,0,0,.995.417,1.408,1.408,0,0,0,.968-.39l.04-.04L48.675,4.811V9.542a1.4,1.4,0,0,0,2.8,0v-8c.04-.04.04-.04.04-.081A1.255,1.255,0,0,0,51.094.417,1.472,1.472,0,0,0,50.086,0Z" transform="translate(-0.005)" fill="#fb5151"/></g></g></svg>