<svg xmlns="http://www.w3.org/2000/svg" width="41.914" height="41.914" viewBox="0 0 41.914 41.914"><path d="M1341.823,564.723a20.957,20.957,0,1,0,20.957,20.957A20.957,20.957,0,0,0,1341.823,564.723Zm18.38,22.483a8.363,8.363,0,0,0-5.2-4.533v-.787a5.275,5.275,0,0,0,3.48-4.1,18.378,18.378,0,0,1,1.8,7.892C1360.28,586.2,1360.244,586.7,1360.2,587.206Zm-4.134-10.3a2.787,2.787,0,1,1-2.787-2.787A2.79,2.79,0,0,1,1356.069,576.91Zm-2.256-5.233a5.159,5.159,0,0,0-.531-.054,5.273,5.273,0,0,0-1.719,10.262v.777a8.833,8.833,0,0,0-5.263,4.013,5.263,5.263,0,0,0-8.874.015,9.106,9.106,0,0,0-5.256-4.019v-.785a5.245,5.245,0,0,0-2.363-10.2,18.383,18.383,0,0,1,24.006-.011Zm-11.991,31.961a16.344,16.344,0,0,1-5.552-1c.611-1.716,2.236-5.067,5.6-5.067,3.307,0,4.9,3.5,5.5,5.322A21.37,21.37,0,0,1,1341.822,603.638Zm.045-11.314a2.78,2.78,0,0,1-2.483-1.548c0-.011,0-.021,0-.032-.017-.056-.1-.332-.253-.731a2.783,2.783,0,1,1,2.739,2.311Zm-11.415-18.2a2.787,2.787,0,1,1-2.787,2.787A2.79,2.79,0,0,1,1330.452,574.123Zm-5.215,3.5a5.268,5.268,0,0,0,3.5,4.263v.777a8.879,8.879,0,0,0-5.313,4.09c-.021-.357-.054-.71-.054-1.072A18.347,18.347,0,0,1,1325.237,577.622Zm-1.082,13.388c.166-.55,1.954-6.062,6.3-6.062,3.661,0,5.651,4.188,6.294,5.841a5.282,5.282,0,0,0,3.4,3.724v.777c-4.052.963-5.815,5.164-6.389,6.973A18.481,18.481,0,0,1,1324.155,591.01Zm25.651,11.292c-.637-2.032-2.371-6.045-6.221-7v-.787a5.285,5.285,0,0,0,3.216-3.121,1.253,1.253,0,0,0,.167-.325c.016-.061,1.766-6.119,6.314-6.119,4.447,0,5.791,6.333,5.8,6.4a1.225,1.225,0,0,0,.155.4A18.483,18.483,0,0,1,1349.806,602.3Z" transform="translate(-1320.866 -564.723)" fill="#e60019"/></svg>