<svg xmlns="http://www.w3.org/2000/svg" width="41.914" height="41.914" viewBox="0 0 41.914 41.914"><g transform="translate(-874.683 -346.79)"><path d="M895.64,346.79A20.957,20.957,0,1,0,916.6,367.747,20.957,20.957,0,0,0,895.64,346.79Zm0,39.414A18.457,18.457,0,1,1,914.1,367.747,18.457,18.457,0,0,1,895.64,386.2Z" fill="#e60019"/><path d="M905.644,365.1h-.472a9.837,9.837,0,0,0-.92-2.22l.333-.332a1.614,1.614,0,0,0,0-2.282l-1.464-1.463a1.652,1.652,0,0,0-2.282,0l-.332.333a9.748,9.748,0,0,0-2.22-.919v-.472a1.615,1.615,0,0,0-1.613-1.613H894.6a1.615,1.615,0,0,0-1.613,1.613v.472a9.813,9.813,0,0,0-2.22.919l-.332-.332a1.653,1.653,0,0,0-2.283,0l-1.462,1.463a1.615,1.615,0,0,0,0,2.282l.333.332a9.834,9.834,0,0,0-.92,2.22h-.471a1.615,1.615,0,0,0-1.613,1.613v2.07a1.614,1.614,0,0,0,1.613,1.613h.471a9.815,9.815,0,0,0,.92,2.22l-.333.333a1.615,1.615,0,0,0,0,2.281l1.464,1.464a1.651,1.651,0,0,0,2.28,0l.334-.333a9.858,9.858,0,0,0,2.22.919v.471a1.616,1.616,0,0,0,1.613,1.614h2.07a1.616,1.616,0,0,0,1.613-1.614v-.471a9.793,9.793,0,0,0,2.22-.919l.332.332a1.653,1.653,0,0,0,2.283,0l1.462-1.464a1.612,1.612,0,0,0,0-2.281l-.333-.333a9.818,9.818,0,0,0,.92-2.22h.472a1.614,1.614,0,0,0,1.612-1.613v-2.07A1.614,1.614,0,0,0,905.644,365.1Zm-2.11,4.2a7.927,7.927,0,0,1-1.216,2.938.924.924,0,0,0,.113,1.17l.684.685-1.134,1.133-.683-.684a.919.919,0,0,0-1.169-.113,7.957,7.957,0,0,1-2.942,1.216.927.927,0,0,0-.746.907v.968h-1.6v-.968a.924.924,0,0,0-.746-.906,7.965,7.965,0,0,1-2.94-1.216.943.943,0,0,0-1.17.111l-.684.685-1.134-1.133.685-.685a.924.924,0,0,0,.113-1.168,7.927,7.927,0,0,1-1.217-2.943.928.928,0,0,0-.906-.744h-.97v-1.6h.969a.924.924,0,0,0,.906-.747,7.956,7.956,0,0,1,1.216-2.938.923.923,0,0,0-.111-1.171l-.684-.684,1.133-1.134.684.685a.926.926,0,0,0,1.168.113,7.937,7.937,0,0,1,2.943-1.217.926.926,0,0,0,.745-.906v-.969h1.6v.969a.926.926,0,0,0,.746.906,7.966,7.966,0,0,1,2.94,1.215.921.921,0,0,0,1.17-.111l.684-.684,1.133,1.133-.683.684a.922.922,0,0,0-.114,1.169,7.952,7.952,0,0,1,1.218,2.939.924.924,0,0,0,.906.748h.969v1.6h-.97A.928.928,0,0,0,903.534,369.3Z" fill="#e60019"/><path d="M895.64,361.994a5.753,5.753,0,1,0,5.753,5.753A5.759,5.759,0,0,0,895.64,361.994Zm0,1.848a3.906,3.906,0,1,1-3.906,3.9A3.911,3.911,0,0,1,895.64,363.842Z" fill="#e60019"/></g></svg>