<svg xmlns="http://www.w3.org/2000/svg" width="41.91" height="41.91" viewBox="0 0 41.91 41.91"><defs><style>.cls-1{fill:#ec1e24;}</style></defs><title>Recurso 5</title><g id="Capa_2" data-name="Capa 2"><g id="Layer_1" data-name="Layer 1"><path class="cls-1" d="M21,0A21,21,0,1,0,41.91,21,21,21,0,0,0,21,0Zm0,39.41A18.46,18.46,0,1,1,39.41,21,18.48,18.48,0,0,1,21,39.41Z"/><path class="cls-1" d="M37.4,15.73a1.5,1.5,0,0,0-1.84-1.06L33,15.36l1.22-2.17h0a3.3,3.3,0,0,0,.25-2.54,3.08,3.08,0,0,0-5.41-.88,3.08,3.08,0,0,0-4.25,3.47,3.28,3.28,0,0,0,1.49,2.08l2.14,1.26L13.86,20.49l-1.1-4.1a1,1,0,0,0-1.22-.71L6,17.18a1,1,0,0,0-.71,1.22l1.1,4.1-.78.21A1.5,1.5,0,0,0,6,25.66a1.74,1.74,0,0,0,.39-.05l12-3.21-4.2,11.19A1.5,1.5,0,0,0,14.29,35a1.49,1.49,0,0,0,1.23.65H25.78a1.5,1.5,0,0,0,1.41-2L22.56,21.26l13.78-3.69A1.5,1.5,0,0,0,37.4,15.73ZM26.62,12.86a1.27,1.27,0,0,1,.21-1,1.19,1.19,0,0,1,1-.49,1.4,1.4,0,0,1,.71.19l.76.45a.46.46,0,0,0,.38.05.49.49,0,0,0,.31-.24l.43-.76A1.27,1.27,0,0,1,32,10.46a1.21,1.21,0,0,1,.68.76,1.38,1.38,0,0,1-.09,1.06l-2,3.47-3.43-2A1.41,1.41,0,0,1,26.62,12.86ZM8.28,22l-.84-3.13,3.65-1L11.93,21ZM23.62,32.62H17.69l3-7.9Z"/></g></g></svg>