<?xml version="1.0" encoding="utf-8"?>
<!-- Generator: Adobe Illustrator 23.0.1, SVG Export Plug-In . SVG Version: 6.00 Build 0)  -->
<svg version="1.1" id="Layer_1" xmlns="http://www.w3.org/2000/svg" xmlns:xlink="http://www.w3.org/1999/xlink" x="0px" y="0px"
	 viewBox="0 0 53.5 51.2" style="enable-background:new 0 0 53.5 51.2;" xml:space="preserve">
<style type="text/css">
	.st0{fill:#ED2024;}
</style>
<path class="st0" d="M25.5,51.2C25.5,51.2,25.5,51.2,25.5,51.2C11.4,51.1-0.1,39.6,0,25.5C0,11.4,11.5,0,25.5,0c0,0,0.1,0,0.1,0
	c3.1,0,6.2,0.6,9.1,1.7C41.1,4.1,46.1,8.8,48.9,15c2.7,6.1,3,12.9,0.7,19.1c0,0.1,0.1,0.1,0.1,0.2l3.6,7.8c0.1,0.3,0.2,0.7,0.2,1
	l0,0c0,0,0,0,0,0l0,0.1c-0.1,1.3-1.2,2.2-2.6,2.2l-8.4-0.8c0,0,0,0,0,0C37.8,48.9,31.8,51.2,25.5,51.2z M25.6,1.5
	c-13.3,0-24.1,10.8-24.1,24c0,13.3,10.8,24.1,24,24.1c0,0,0,0,0,0c6,0,11.8-2.2,16.2-6.3l0.3-0.3l0.4,0.1c0.1,0,0.1,0,0.2,0L51,44
	c0.5,0,1-0.4,1-0.9l0-0.1c0-0.1,0-0.2-0.1-0.3L48.4,35c0-0.1-0.1-0.1-0.2-0.2l-0.3-0.3l0.2-0.4c2.3-6,2.1-12.5-0.6-18.4
	C44.9,9.8,40.2,5.3,34.2,3.1C31.4,2,28.5,1.5,25.6,1.5C25.6,1.5,25.6,1.5,25.6,1.5z M37.7,29.3h-0.1c-2.1,0-3.8-1.7-3.8-3.8
	s1.7-3.8,3.8-3.8s3.8,1.7,3.8,3.8C41.4,27.6,39.8,29.3,37.7,29.3L37.7,29.3z M37.6,23.3c-1.2,0-2.3,1-2.3,2.3s1,2.3,2.3,2.3h0.1
	c1.2,0,2.2-1,2.2-2.2C39.9,24.3,38.8,23.3,37.6,23.3z M25.7,29.3h-0.1c-2.1,0-3.8-1.7-3.8-3.8s1.7-3.8,3.8-3.8s3.8,1.7,3.8,3.8
	C29.4,27.6,27.7,29.3,25.7,29.3L25.7,29.3z M25.6,23.3c-1.2,0-2.3,1-2.3,2.3s1,2.3,2.3,2.3h0.1c1.2,0,2.2-1,2.2-2.3
	C27.8,24.3,26.8,23.3,25.6,23.3z M13.7,29.3h-0.1c-2.1,0-3.8-1.7-3.8-3.8s1.7-3.8,3.8-3.8s3.8,1.7,3.8,3.8
	C17.3,27.6,15.7,29.3,13.7,29.3L13.7,29.3z M13.6,23.3c-1.2,0-2.3,1-2.3,2.3s1,2.3,2.3,2.3h0.1c1.2,0,2.2-1,2.2-2.3
	C15.8,24.3,14.8,23.3,13.6,23.3z"/>
</svg>
