<svg xmlns="http://www.w3.org/2000/svg" width="66.161" height="67.14" viewBox="0 0 66.161 67.14"><path d="M1022.386,1316.918c-1.564-1.314-12.048-11.957-19.1-19.189a23.86,23.86,0,1,0-37.175-1.776h-7.548a1.5,1.5,0,0,0-1.5,1.5v26.277a1.5,1.5,0,0,0,3,0v-24.777h5.977v24.777a1.5,1.5,0,0,0,3,0v-24.447a24.063,24.063,0,0,0,3.675,2.853v21.594a1.5,1.5,0,0,0,3,0v-19.988a23.677,23.677,0,0,0,5.978,1.776v18.212a1.5,1.5,0,0,0,3,0v-17.939c.239.007.478.018.718.018a23.831,23.831,0,0,0,2.956-.19v18.111a1.5,1.5,0,0,0,3,0v-18.674a23.682,23.682,0,0,0,5.979-2.46v21.134a1.5,1.5,0,1,0,3,0v-23.193q.415-.335.816-.688c17.1,17.551,19.5,19.94,20.628,19.94a1.261,1.261,0,0,0,.493-.128,1.518,1.518,0,0,0,.941-1.4A1.5,1.5,0,0,0,1022.386,1316.918ZM975.71,1300.4v-14.155h5.978v16.21A20.717,20.717,0,0,1,975.71,1300.4Zm9.7,2.406c-.242,0-.477-.028-.718-.036v-18.025a1.5,1.5,0,0,0-1.5-1.5H974.21a1.5,1.5,0,0,0-1.5,1.5v13.714a20.855,20.855,0,1,1,27.631-1.98v-21.959a1.5,1.5,0,0,0-1.5-1.5h-8.979a1.5,1.5,0,0,0-1.5,1.5v28.052A20.867,20.867,0,0,1,985.406,1302.809Zm5.956-.878v-25.908h5.979v23.009A20.757,20.757,0,0,1,991.362,1301.931Z" transform="translate(-957.058 -1258.09)" fill="#ec2426"/></svg>