<svg xmlns="http://www.w3.org/2000/svg" width="41.914" height="41.913" viewBox="0 0 41.914 41.913"><g transform="translate(-795.22 -285.189)"><path d="M816.177,285.189a20.957,20.957,0,1,0,20.957,20.957A20.957,20.957,0,0,0,816.177,285.189Zm0,39.414a18.457,18.457,0,1,1,18.457-18.457A18.456,18.456,0,0,1,816.177,324.6Z" fill="#e60019"/><path d="M825.214,302.47H807.14a1.25,1.25,0,0,1,0-2.5h18.074a1.25,1.25,0,0,1,0,2.5Z" fill="#e60019"/><path d="M821.14,307.4h-14a1.25,1.25,0,0,1,0-2.5h14a1.25,1.25,0,0,1,0,2.5Z" fill="#e60019"/><path d="M818.14,312.322h-11a1.25,1.25,0,0,1,0-2.5h11a1.25,1.25,0,0,1,0,2.5Z" fill="#e60019"/></g></svg>