<?xml version="1.0" encoding="utf-8"?>
<!-- Generator: Adobe Illustrator 23.0.1, SVG Export Plug-In . SVG Version: 6.00 Build 0)  -->
<svg version="1.1" id="Layer_1" xmlns="http://www.w3.org/2000/svg" xmlns:xlink="http://www.w3.org/1999/xlink" x="0px" y="0px"
	 viewBox="0 0 51.8 52" style="enable-background:new 0 0 51.8 52;" xml:space="preserve">
<style type="text/css">
	.st0{fill:#ED2024;}
</style>
<path class="st0" d="M35.4,52H5.1C2.3,52,0,49.7,0,46.9V5.1C0,2.3,2.3,0,5.1,0h30.4c2.8,0,5.1,2.3,5.1,5.1v16.4l-1.1-0.6
	c-1.9-1-4-1.6-6.1-1.6c0,0,0,0,0,0c-4,0-7.9,1.9-10.3,5.2l-0.2,0.3H7.3l0,2.2l14.2,0l-0.4,1c-0.5,1.4-0.7,2.8-0.7,4.3
	c0,1.1,0.1,2.2,0.4,3.3l0.2,0.9H7.3l0,2.2H22l0.2,0.4c2.3,3.8,6.5,6.2,10.9,6.2c0,0,0,0,0,0c2.1,0,4.3-0.6,6.2-1.6l1.1-0.6v3.9
	C40.5,49.7,38.2,52,35.4,52z M5.1,1.5c-2,0-3.6,1.6-3.6,3.6v41.8c0,2,1.6,3.6,3.6,3.6h30.3c2,0,3.6-1.6,3.6-3.6v-1.5
	c-1.8,0.8-3.8,1.2-5.7,1.2h0c0,0,0,0,0,0c-4.8,0-9.4-2.5-12-6.6H7c-0.3,0-0.6-0.1-0.9-0.3s-0.4-0.5-0.4-0.9l0-2.7
	c0-0.3,0.1-0.6,0.3-0.9c0.2-0.2,0.5-0.3,0.7-0.4l0.1,0h12.1c-0.2-0.9-0.3-1.8-0.2-2.7c0-1.3,0.2-2.6,0.5-3.8H7
	c-0.3,0-0.6-0.1-0.9-0.3c-0.2-0.2-0.4-0.5-0.4-0.9l0-2.7c0-0.3,0.1-0.6,0.3-0.9s0.5-0.4,0.9-0.4l15.1,0c2.7-3.4,6.9-5.5,11.2-5.5
	c0,0,0.1,0,0.1,0c1.9,0,3.9,0.4,5.6,1.2V5.1c0-2-1.6-3.6-3.6-3.6H5.1z M7,38.6C7,38.6,7,38.6,7,38.6L7,38.6C7,38.6,7,38.6,7,38.6z
	 M7.3,36.2L7.3,36.2C7.3,36.2,7.3,36.2,7.3,36.2z M7,26.9C7,26.9,7,26.9,7,26.9L7,26.9C7,26.9,7,26.9,7,26.9z M7.3,24.5L7.3,24.5
	C7.3,24.5,7.3,24.5,7.3,24.5z M7,17.1c-0.6,0-1.2-0.5-1.2-1.2l0-2.7c0-0.7,0.5-1.3,1.2-1.3l26.5,0c0.7,0,1.2,0.5,1.3,1.2v2.7
	c0,0.7-0.5,1.2-1.2,1.2L7,17.1C7,17.1,7,17.1,7,17.1z M33.3,15.8C33.3,15.8,33.3,15.8,33.3,15.8L33.3,15.8z M7,15.6
	C7,15.6,7,15.6,7,15.6L7,15.6C7,15.6,7,15.6,7,15.6z M7.3,13.4v2.2l26,0v-2.2L7.3,13.4z M33.5,13.4C33.5,13.4,33.5,13.4,33.5,13.4
	L33.5,13.4z"/>
<g transform="translate(35.429 33.943)">
	<path class="st0" d="M13.7,16.4C13.7,16.4,13.6,16.4,13.7,16.4c-0.7,0-1.3-0.3-1.8-0.8L3.7,7.5C1.9,8.6-0.1,9.2-2.1,9.2
		c0,0,0,0,0,0C-8.1,9.2-13,4.4-13-1.6c0-6,4.8-10.8,10.8-10.9c2.9,0,5.6,1.1,7.7,3.1c2,2,3.2,4.7,3.2,7.6c0,1.9-0.5,3.8-1.5,5.4
		l8.3,8.3c1,1,1,2.6,0,3.6l-0.1,0.1C14.9,16.2,14.3,16.4,13.7,16.4z M3.8,5.5l9.1,9.1c0.2,0.2,0.4,0.3,0.7,0.3
		c0.3,0,0.5-0.1,0.7-0.3c0.4-0.5,0.5-1.1,0-1.5L5.3,4l0.3-0.5c1-1.5,1.6-3.3,1.5-5.1c0-2.5-1-4.8-2.7-6.6s-4.1-2.7-6.6-2.7
		c-5.1,0-9.3,4.2-9.3,9.3c0,5.1,4.2,9.3,9.3,9.3c0,0,0,0,0,0c2,0,3.9-0.6,5.5-1.8L3.8,5.5z M-2.2,5.6c-1.9,0-3.7-0.8-5.1-2.1
		c-1.4-1.4-2.1-3.2-2.1-5.1c0-1.9,0.8-3.8,2.1-5.1C-6-8.1-4.2-8.8-2.2-8.8h0c4,0,7.2,3.2,7.2,7.2C5,2.4,1.8,5.6-2.2,5.6L-2.2,5.6
		C-2.2,5.6-2.2,5.6-2.2,5.6z M-2.2-7.3C-2.2-7.3-2.2-7.3-2.2-7.3c-1.5,0-3,0.6-4.1,1.7S-8-3.1-8-1.6c0,1.5,0.6,3,1.7,4.1
		c1.1,1.1,2.5,1.7,4.1,1.7c0,0,0,0,0,0h0.1c3.1,0,5.7-2.6,5.7-5.7C3.5-4.8,0.9-7.3-2.2-7.3z"/>
</g>
</svg>
