<svg xmlns="http://www.w3.org/2000/svg" width="41.91" height="41.91" viewBox="0 0 41.91 41.91"><defs><style>.cls-1{fill:#ec1e24;}</style></defs><title>Recurso 4</title><g id="Capa_2" data-name="Capa 2"><g id="Layer_1" data-name="Layer 1"><path class="cls-1" d="M21,0A21,21,0,1,0,41.91,21,21,21,0,0,0,21,0Zm0,39.41A18.46,18.46,0,1,1,39.41,21,18.48,18.48,0,0,1,21,39.41Z"/><path class="cls-1" d="M37.11,19.67a3.12,3.12,0,0,0-3.35-2,3.06,3.06,0,0,0-5.45-.55,3.21,3.21,0,0,0-.42,2.52l.6,2.33L8.26,10.34a1.5,1.5,0,0,0-1.5,2.6l12.52,7.22L14.42,33.09a1.5,1.5,0,0,0,1.41,2H26.09a1.49,1.49,0,0,0,1.23-.65,1.5,1.5,0,0,0,.17-1.38L23.57,22.64l10.08,5.82a1.5,1.5,0,1,0,1.5-2.59l-2.48-1.44L35,23.79h0a3.22,3.22,0,0,0,2-1.63A3.08,3.08,0,0,0,37.11,19.67ZM18,32.12l3-7.89,3,7.89ZM35.31,21.33a1.39,1.39,0,0,1-.81.68l-3.84,1.06-1-3.85a1.36,1.36,0,0,1,.18-1,1.27,1.27,0,0,1,.86-.56l.19,0a1.31,1.31,0,0,1,1.22,1l.22.85a.53.53,0,0,0,.24.31.46.46,0,0,0,.38,0l.85-.24a1.28,1.28,0,0,1,1.56.73A1.25,1.25,0,0,1,35.31,21.33Z"/></g></g></svg>