<?xml version="1.0" encoding="utf-8"?>
<!-- Generator: Adobe Illustrator 23.0.1, SVG Export Plug-In . SVG Version: 6.00 Build 0)  -->
<svg version="1.1" id="Layer_1" xmlns="http://www.w3.org/2000/svg" xmlns:xlink="http://www.w3.org/1999/xlink" x="0px" y="0px"
	 viewBox="0 0 75.2 75.2" style="enable-background:new 0 0 75.2 75.2;" xml:space="preserve">
<style type="text/css">
	.st0{fill:#EC2426;}
</style>
<path class="st0" d="M28.9,57.9C13,57.9,0,44.9,0,28.9S13,0,28.9,0s28.9,13,28.9,28.9S44.9,57.9,28.9,57.9z M28.9,2.5
	C14.4,2.5,2.5,14.4,2.5,28.9c0,14.6,11.9,26.4,26.4,26.4c14.6,0,26.4-11.9,26.4-26.4C55.4,14.4,43.5,2.5,28.9,2.5z"/>
<path class="st0" d="M73.9,75.2c-0.9,0-2.6-1.7-13.8-13c-6.3-6.4-12.5-12.8-12.5-12.8c-0.5-0.5-0.5-1.3,0-1.8c0.5-0.5,1.3-0.5,1.8,0
	c9.2,9.4,23.2,23.6,25,25.1c0.4,0.2,0.8,0.6,0.8,1.1c0,0.5-0.3,1-0.8,1.2C74.2,75.1,74.1,75.2,73.9,75.2z"/>
</svg>
