<svg xmlns="http://www.w3.org/2000/svg" width="79.174" height="60.358" viewBox="0 0 79.174 60.358"><path d="M702.906,1137.99a1.5,1.5,0,0,0-1.487-.2L679.29,1146.9a1.5,1.5,0,0,0-.344,2.575l8.29,6.387-19.024,24.691-16.689-12.09a1.5,1.5,0,0,0-2.19.116l-24.666,26.991a1.5,1.5,0,0,0,2.3,1.927l23.633-25.758,16.737,12.137a1.5,1.5,0,0,0,2.229-.164l20.049-26.018,8.29,6.388a1.5,1.5,0,0,0,2.4-.989l3.171-23.719A1.5,1.5,0,0,0,702.906,1137.99Zm-5.229,22.132-14.842-11.435,17.324-7.133Z" transform="translate(-624.316 -1137.678)" fill="#ec2426"/></svg>