<svg xmlns="http://www.w3.org/2000/svg" width="41.914" height="41.914" viewBox="0 0 41.914 41.914"><g transform="translate(-900.908 -504.119)"><path d="M921.865,546.033a20.957,20.957,0,1,1,20.957-20.957h0A20.982,20.982,0,0,1,921.865,546.033Zm0-39.414a18.457,18.457,0,1,0,18.457,18.457h0A18.479,18.479,0,0,0,921.865,506.619Z" fill="#e60019"/><circle cx="2.578" cy="2.578" r="2.578" transform="translate(919.355 515.941)" fill="none" stroke="#e60019" stroke-linecap="round" stroke-linejoin="round" stroke-width="3"/><line x1="21.104" transform="translate(911.689 525.102)" stroke-width="2.5" stroke="#e60019" stroke-linecap="round" stroke-linejoin="round" fill="none"/><line y2="5.379" transform="translate(911.689 525.102)" stroke-width="2.5" stroke="#e60019" stroke-linecap="round" stroke-linejoin="round" fill="none"/><line y2="5.379" transform="translate(921.816 525.102)" stroke-width="2.5" stroke="#e60019" stroke-linecap="round" stroke-linejoin="round" fill="none"/><line y2="5.379" transform="translate(932.794 525.102)" stroke-width="2.5" stroke="#e60019" stroke-linecap="round" stroke-linejoin="round" fill="none"/><line y2="3.204" transform="translate(921.932 521.097)" stroke-width="2.5" stroke="#e60019" stroke-linecap="round" stroke-linejoin="round" fill="none"/><circle cx="1.608" cy="1.608" r="1.608" transform="translate(909.328 530.996)" fill="none" stroke="#e60019" stroke-linecap="round" stroke-linejoin="round" stroke-width="2"/><circle cx="1.608" cy="1.608" r="1.608" transform="translate(920.209 530.996)" fill="none" stroke="#e60019" stroke-linecap="round" stroke-linejoin="round" stroke-width="2"/><circle cx="1.608" cy="1.608" r="1.608" transform="translate(931.186 530.996)" fill="none" stroke="#e60019" stroke-linecap="round" stroke-linejoin="round" stroke-width="2"/></g></svg>