<svg xmlns="http://www.w3.org/2000/svg" width="71.15" height="70.999" viewBox="0 0 71.15 70.999"><g transform="translate(0.004)"><g transform="translate(-0.004)"><g transform="translate(0)"><g transform="translate(29.008)"><path d="M28.573,2.12A4.453,4.453,0,1,1,24.12,6.573,4.461,4.461,0,0,1,28.573,2.12m0-2.12a6.573,6.573,0,1,0,6.573,6.573A6.57,6.57,0,0,0,28.573,0Z" transform="translate(-22)" fill="#fb5151"/></g><g transform="translate(24.172 13.752)"><path d="M32.476,12.54a7.056,7.056,0,0,1,6.785,7.252V20.6H20.7v-.961a6.977,6.977,0,0,1,6.8-7.1h4.976m.042-2.12H27.5a9.081,9.081,0,0,0-8.92,9.245v1.541c0,.707.269,1.513,1.06,1.513H40.322c.806,0,1.06-.806,1.06-1.513V19.792a9.144,9.144,0,0,0-8.863-9.372Z" transform="translate(-18.579 -10.42)" fill="#fb5151"/></g><g transform="translate(7.903 17.202)"><path d="M17.535,13.27a1.372,1.372,0,0,0-.82.283A29.912,29.912,0,0,0,5.59,36.793a1.308,1.308,0,1,0,2.615,0,27.136,27.136,0,0,1,10.164-21.2,1.253,1.253,0,0,0,.269-1.725c-.042-.042-.085-.085-.085-.127a1.328,1.328,0,0,0-1.018-.466Z" transform="translate(-5.59 -13.27)" fill="#fb5151"/></g><g transform="translate(25.289 63.776)"><path d="M20.629,48.07a1.274,1.274,0,0,0-1.2.848.127.127,0,0,0-.014.071v.042a1.368,1.368,0,0,0,.891,1.64,32.318,32.318,0,0,0,9.358,1.513h.028a29.093,29.093,0,0,0,9.514-1.6,1.334,1.334,0,0,0,.58-1.781,1.4,1.4,0,0,0-1.216-.693,1.558,1.558,0,0,0-.254.028,28.08,28.08,0,0,1-8.637,1.371,27.64,27.64,0,0,1-8.623-1.371,1.481,1.481,0,0,0-.424-.071Z" transform="translate(-19.368 -48.07)" fill="#fb5151"/></g><g transform="translate(48.575 16.225)"><path d="M38.69,12.54a1.386,1.386,0,0,0-1.1.551,1.333,1.333,0,0,0,.269,1.866A27.068,27.068,0,0,1,49.349,37.095a1.327,1.327,0,0,0,1.329,1.329h.028a1.294,1.294,0,0,0,1.3-1.286v-.042A30.007,30.007,0,0,0,39.4,12.738a1.4,1.4,0,0,0-.707-.2Z" transform="translate(-37.322 -12.54)" fill="#fb5151"/></g><g transform="translate(4.836 44.906)"><path d="M9.993,36.18A4.453,4.453,0,1,1,5.54,40.633,4.461,4.461,0,0,1,9.993,36.18m0-2.12a6.573,6.573,0,1,0,6.573,6.573A6.57,6.57,0,0,0,9.993,34.06Z" transform="translate(-3.42 -34.06)" fill="#fb5151"/></g><g transform="translate(0 58.702)"><path d="M13.9,46.6a7.083,7.083,0,0,1,6.785,7.252v.806H2.121v-.933a6.98,6.98,0,0,1,6.8-7.11H13.9m.042-2.135H8.92A9.115,9.115,0,0,0,0,53.753v1.513c0,.707.269,1.513,1.06,1.513H21.742c.806,0,1.06-.806,1.06-1.513V53.852a9.171,9.171,0,0,0-8.863-9.372Z" transform="translate(0.001 -44.48)" fill="#fb5151"/></g><g transform="translate(53.181 44.906)"><path d="M47.153,36.18A4.453,4.453,0,1,1,42.7,40.633a4.461,4.461,0,0,1,4.453-4.453m0-2.12a6.573,6.573,0,1,0,6.573,6.573,6.57,6.57,0,0,0-6.573-6.573Z" transform="translate(-40.58 -34.06)" fill="#fb5151"/></g><g transform="translate(48.345 58.702)"><path d="M51.056,46.6a7.083,7.083,0,0,1,6.785,7.252v.806H39.281v-.933a6.98,6.98,0,0,1,6.8-7.11h4.976M51.1,44.48H46.08a9.115,9.115,0,0,0-8.92,9.273v1.513c0,.707.269,1.513,1.06,1.513H58.9c.806,0,1.06-.806,1.06-1.513V53.852A9.171,9.171,0,0,0,51.1,44.48Z" transform="translate(-37.159 -44.48)" fill="#fb5151"/></g></g></g></g></svg>