<?xml version="1.0" encoding="utf-8"?>
<!-- Generator: Adobe Illustrator 23.0.1, SVG Export Plug-In . SVG Version: 6.00 Build 0)  -->
<svg version="1.1" id="Layer_1" xmlns="http://www.w3.org/2000/svg" xmlns:xlink="http://www.w3.org/1999/xlink" x="0px" y="0px"
	 viewBox="0 0 57.2 70.9" style="enable-background:new 0 0 57.2 70.9;" xml:space="preserve">
<style type="text/css">
	.st0{fill:#FB5151;}
</style>
<g transform="translate(0 0)">
	<g transform="translate(4.507)">
		<path class="st0" d="M18.4,1.8L18.4,1.8c0.5,0,1,0.2,1.4,0.4c1.3,0.8,2.8,1.2,4.3,1.2c1.5,0,3-0.4,4.3-1.2
			c0.4-0.3,0.9-0.4,1.4-0.4l0,0c0.2,0,0.8,0,1.6,1.2c1.5,2.6,4.2,4.3,7.3,4.3h0.1c1.6,0,2.2,0.6,2.2,2.2c-0.1,3.1,1.6,5.9,4.3,7.4
			c1.4,0.8,1.6,1.6,0.8,2.9c-1.6,2.6-1.6,5.9,0,8.6c0.8,1.4,0.6,2.1-0.8,2.9c-2.7,1.5-4.4,4.3-4.3,7.4c0,1.6-0.6,2.2-2.2,2.2h-0.2
			c-3,0-5.8,1.6-7.3,4.3c-0.7,1.2-1.3,1.2-1.5,1.2c-0.5,0-1-0.2-1.4-0.5c-1.3-0.8-2.8-1.2-4.3-1.2c-1.5,0-3,0.4-4.3,1.2
			c-0.4,0.3-0.9,0.4-1.4,0.5c-0.2,0-0.8,0-1.6-1.2c-1.5-2.6-4.2-4.3-7.3-4.3H9.5c-1.6,0-2.2-0.6-2.2-2.1c0.1-3.1-1.6-5.9-4.3-7.4
			c-1.4-0.8-1.6-1.6-0.8-2.9c1.6-2.6,1.6-5.9,0-8.6c-0.8-1.4-0.6-2.1,0.7-2.9c2.7-1.5,4.4-4.3,4.3-7.4c0-1.6,0.5-2.2,2.2-2.2h0.2
			c3,0,5.8-1.6,7.3-4.3C17.6,1.8,18.2,1.8,18.4,1.8 M20.2,39.6l-0.5,0.5l4.4,0c8.8,0,15.9-7.2,15.9-16S32.8,8.1,24,8.2
			c-8.8,0-15.9,7.2-15.9,16C8.1,31.4,13.1,37.8,20.2,39.6 M29.8,0c-0.8,0-1.6,0.3-2.3,0.7c-1,0.6-2.2,1-3.4,1c-1.2,0-2.4-0.3-3.4-1
			C20,0.3,19.2,0,18.4,0c-1.3,0.1-2.5,0.9-3.1,2.1C14.2,4.2,12,5.5,9.6,5.5H9.5c-2.6,0-3.9,1.3-3.9,3.9c0.1,2.4-1.3,4.7-3.4,5.9
			c-2.2,1.3-2.7,3.1-1.4,5.4c1.3,2.1,1.3,4.7,0,6.8c-1.3,2.2-0.8,4.1,1.4,5.4c2.1,1.2,3.4,3.4,3.4,5.8c0,2.6,1.3,3.9,3.9,3.9h0.2
			c2.4,0,4.6,1.3,5.7,3.4c0.6,1.2,1.8,2,3.1,2.1c0.8,0,1.6-0.3,2.3-0.7c2.1-1.2,4.7-1.2,6.8,0c0.7,0.4,1.5,0.7,2.3,0.7
			c1.3-0.1,2.5-0.9,3.1-2.1c1.1-2.1,3.3-3.4,5.7-3.4h0.2c2.6,0,3.9-1.3,3.9-3.9c-0.1-2.4,1.3-4.7,3.4-5.8c2.2-1.3,2.7-3.1,1.4-5.4
			c-1.3-2.1-1.3-4.7,0-6.8c1.3-2.2,0.8-4.1-1.4-5.4c-2.1-1.2-3.4-3.4-3.4-5.9c0-2.6-1.3-3.9-3.9-3.9h-0.2c-2.4,0-4.6-1.3-5.7-3.4
			C32.3,0.9,31.1,0.1,29.8,0z M24.1,38.3c-7.8,0-14.2-6.3-14.2-14.2c0-7.8,6.3-14.2,14.2-14.2h0c7.8,0,14.2,6.3,14.2,14.2v0
			C38.3,31.9,31.9,38.3,24.1,38.3L24.1,38.3L24.1,38.3z"/>
	</g>
	<g transform="translate(0 43.458)">
		<path class="st0" d="M11.3,2.7c0.8,0.3,1.6,0.4,2.4,0.4l0,0c1.6-0.2,3.1,0.7,3.8,2.2c0.7,1.2,1.7,2.1,2.9,2.7
			c-1.1,2.3-3.2,6.7-7.5,15.6L10,19l-0.6-0.9l-1.1,0.1l-5.3,0.6L11.3,2.7 M10.7,0L0,20.9l8.5-1l4.7,7.1c0,0,9.7-20.3,9.8-20.4
			c-5.1-0.1-3-5.3-9.3-5.4C11,1.3,10.6,0,10.7,0L10.7,0z"/>
	</g>
	<g transform="translate(33.838 44.274)">
		<path class="st0" d="M11.6,1.9l8.6,16l-5-0.6l-1.4-0.2l-0.5,1.3l-1.6,4.2L2.9,7.4C4,7,5,6.4,5.8,5.5c0.5-0.5,0.9-1,1.3-1.7
			C7.5,3.1,7.9,2.4,11.6,1.9 M12.6,0c-7.8,0.8-6.2,2.8-8,4.2C3.6,5.4,2.1,6,0.6,6C0.4,6,0.2,6,0,6l12,20.6l3-7.6l8.4,1.1L12.6,0
			L12.6,0z"/>
	</g>
	<path class="st0" d="M35.6,34.6l-7-3.6l-6.9,3.6l1.3-7.7l-5.6-5.5l7.8-1.1l3.5-7l3.5,7l7.8,1.1l-5.6,5.5L35.6,34.6z M20.6,22.4
		l4,3.9l-0.9,5.5l4.9-2.6l5,2.6l-0.9-5.5l4-3.9l-5.5-0.8l-2.5-5l-2.5,5L20.6,22.4z"/>
</g>
</svg>
