<svg xmlns="http://www.w3.org/2000/svg" width="41.914" height="41.914" viewBox="0 0 41.914 41.914"><g transform="translate(-1082.602 -609.993)"><path d="M1103.559,651.907a20.957,20.957,0,1,1,20.957-20.957h0A20.98,20.98,0,0,1,1103.559,651.907Zm0-39.414a18.457,18.457,0,1,0,18.457,18.457h0A18.478,18.478,0,0,0,1103.559,612.493Z" fill="#e60019"/><path d="M1103.922,626.288a4.59,4.59,0,1,1,4.59-4.59A4.6,4.6,0,0,1,1103.922,626.288Zm0-6.18a1.59,1.59,0,1,0,1.59,1.59A1.592,1.592,0,0,0,1103.922,620.108Z" fill="#e60019"/><path d="M1095.19,642.792a4.59,4.59,0,1,1,4.59-4.59A4.594,4.594,0,0,1,1095.19,642.792Zm0-6.18a1.59,1.59,0,1,0,1.59,1.59A1.591,1.591,0,0,0,1095.19,636.612Z" fill="#e60019"/><path d="M1111.929,642.792a4.59,4.59,0,1,1,4.59-4.59A4.594,4.594,0,0,1,1111.929,642.792Zm0-6.18a1.59,1.59,0,1,0,1.59,1.59A1.592,1.592,0,0,0,1111.929,636.612Z" fill="#e60019"/><path d="M1099.071,636.612a1.5,1.5,0,0,1-.959-2.654l4.31-3.575v-4.495a1.5,1.5,0,0,1,3,0v5.2a1.5,1.5,0,0,1-.542,1.155l-4.852,4.024A1.491,1.491,0,0,1,1099.071,636.612Z" fill="#e60019"/><path d="M1108.719,636.612a1.5,1.5,0,0,1-.963-.35l-4.8-4.025a1.5,1.5,0,1,1,1.928-2.3l4.8,4.025a1.5,1.5,0,0,1-.965,2.649Z" fill="#e60019"/></g></svg>