<svg xmlns="http://www.w3.org/2000/svg" width="72" height="67.7" viewBox="0 0 72 67.7"><defs><style>.cls-1{fill:#ec2426;}</style></defs><title>icon-programa-4</title><g id="Capa_2" data-name="Capa 2"><g id="Layer_1" data-name="Layer 1"><path class="cls-1" d="M70.5,14.09H65.61l4.28-4.36a6,6,0,0,0,1.64-4.4,5.69,5.69,0,0,0-2-4.09A5.86,5.86,0,0,0,62.75.9,5.85,5.85,0,0,0,56,1.24,5.63,5.63,0,0,0,54,5.34a6,6,0,0,0,1.64,4.39l4.28,4.36H18.1V2.84a1.5,1.5,0,0,0-1.5-1.5H4.6a1.5,1.5,0,0,0-1.5,1.5V14.09H1.5a1.5,1.5,0,0,0,0,3H34.26L26.72,66a1.52,1.52,0,0,0,1.49,1.73H43.79A1.52,1.52,0,0,0,45.28,66L37.74,17.09H70.5a1.5,1.5,0,0,0,0-3ZM57,5.48a2.69,2.69,0,0,1,1-2A2.47,2.47,0,0,1,59.57,3a3,3,0,0,1,2.11.9,1.51,1.51,0,0,0,2.15,0,2.86,2.86,0,0,1,3.72-.33,2.69,2.69,0,0,1,1,2,3,3,0,0,1-.8,2.15l-5,5.08-5-5.08A3,3,0,0,1,57,5.48ZM6.1,4.34h9v9h-9ZM30,64.7l6-39.19,6,39.19Z"/></g></g></svg>