<svg xmlns="http://www.w3.org/2000/svg" width="41.914" height="41.914" viewBox="0 0 41.914 41.914"><g transform="translate(-1253.192 -456.236)"><path d="M1274.15,456.235a20.945,20.945,0,0,0-13,37.373,1.225,1.225,0,0,0,.823.616,20.95,20.95,0,1,0,12.181-37.989Zm0,39.414a18.357,18.357,0,0,1-10.666-3.411V467.356a1.25,1.25,0,0,0-2.5,0v22.761a18.45,18.45,0,1,1,13.166,5.532Z" fill="#e60019"/><path d="M1286.715,467.332a1.2,1.2,0,0,0-.083-.232c-.014-.027-.014-.058-.03-.084-.027-.043-.069-.068-.1-.107a1.164,1.164,0,0,0-.171-.185,1.182,1.182,0,0,0-.2-.134,1.214,1.214,0,0,0-.21-.1,1.231,1.231,0,0,0-.254-.051,1.1,1.1,0,0,0-.139-.028h-19.686a1.249,1.249,0,0,0-1.25,1.25v13.275a1.25,1.25,0,0,0,1.25,1.25h19.688a1.242,1.242,0,0,0,.43-.086c.032-.012.062-.023.093-.037a1.226,1.226,0,0,0,.35-.236c.012-.012.02-.026.031-.039a1.259,1.259,0,0,0,.164-.2c.016-.027.016-.057.03-.084a1.222,1.222,0,0,0,.083-.232,1.243,1.243,0,0,0,.05-.246c0-.03.017-.056.017-.086V467.664c0-.03-.015-.056-.017-.086A1.243,1.243,0,0,0,1286.715,467.332Zm-9.72,6.969,7.287-4.417v8.835Zm-9.9-5.387h13.963l-7.123,4.318a1.25,1.25,0,0,0,0,2.138l7.123,4.319H1267.1Z" fill="#e60019"/></g></svg>