<svg xmlns="http://www.w3.org/2000/svg" width="41.914" height="41.914" viewBox="0 0 41.914 41.914"><path d="M1207.019,563.033a20.937,20.937,0,0,0-13.869,36.639c.014.014.018.033.033.047a.676.676,0,0,0,.063.04,20.949,20.949,0,1,0,13.773-36.726Zm0,2.5a18.413,18.413,0,0,1,13.793,6.236,1.481,1.481,0,0,0-.7-.181h-26.627c-.04,0-.078.008-.118.012A18.39,18.39,0,0,1,1207.019,565.533Zm-1.107,26.032v-1.906a8.129,8.129,0,0,0,.887.053,7.858,7.858,0,0,0,1.113-.088v1.941Zm.887-4.853a4.792,4.792,0,0,1-4.826-4.593h9.651A4.791,4.791,0,0,1,1206.8,586.712Zm6.257-7.633a1.537,1.537,0,0,0-.434-.064h-11.646a1.491,1.491,0,0,0-.434.065v-4.492h12.514Zm-24.494,4.911a18.355,18.355,0,0,1,3.443-10.709,1.5,1.5,0,0,0,1.48,1.307h4.057v6.031a1.5,1.5,0,0,0,1.427,1.493,7.747,7.747,0,0,0,4.943,7.049v2.964a17.849,17.849,0,0,0-10.06,4.788A18.387,18.387,0,0,1,1188.562,583.99Zm7.576,14.885a15.546,15.546,0,0,1,10.824-3.977,16.027,16.027,0,0,1,10.863,4.033,18.361,18.361,0,0,1-21.687-.056Zm23.991-1.9a18.635,18.635,0,0,0-10.217-4.851v-3.054a7.743,7.743,0,0,0,4.717-6.959,1.5,1.5,0,0,0,1.427-1.493v-6.031h3.143a1.236,1.236,0,0,0-.334.836v6.821a2.437,2.437,0,1,0,2.5,0v-6.821a1.228,1.228,0,0,0-.559-1.014,1.464,1.464,0,0,0,.727-1.783,18.4,18.4,0,0,1-1.4,24.349Z" transform="translate(-1186.063 -563.034)" fill="#e60019"/></svg>