<svg xmlns="http://www.w3.org/2000/svg" width="41.914" height="41.914" viewBox="0 0 41.914 41.914"><g transform="translate(-963.289 -614.155)"><path d="M984.246,656.069a20.957,20.957,0,1,1,20.957-20.957h0A20.982,20.982,0,0,1,984.246,656.069Zm0-39.414a18.457,18.457,0,1,0,18.457,18.457h0A18.479,18.479,0,0,0,984.246,616.655Z" fill="#e60019"/><rect width="2.724" height="10.977" rx="1.362" transform="translate(974.95 629.279)" fill="#e60019"/><rect width="2.724" height="10.977" rx="1.362" transform="translate(980.239 629.279)" fill="#e60019"/><rect width="2.724" height="10.977" rx="1.362" transform="translate(985.528 629.279)" fill="#e60019"/><rect width="2.724" height="10.977" rx="1.362" transform="translate(990.817 629.279)" fill="#e60019"/><path d="M970.035,628.529a1.25,1.25,0,0,1-.428-2.425L984.1,620.82a1.26,1.26,0,0,1,.829-.01l13.925,4.717a1.25,1.25,0,0,1-.376,2.433l-28.419.568Zm14.51-5.21-7.021,2.56,13.765-.275Z" fill="#e60019"/><rect width="23.813" height="3" rx="1.5" transform="translate(996.01 644.11) rotate(180)" fill="#e60019"/><rect width="33" height="3" rx="1.5" transform="translate(1000.604 648.23) rotate(180)" fill="#e60019"/></g></svg>