<svg xmlns="http://www.w3.org/2000/svg" width="41.914" height="42.022" viewBox="0 0 41.914 42.022"><g transform="translate(-1049.21 -239.03)"><path d="M1070.167,280.944a20.957,20.957,0,1,1,20.957-20.957h0A20.982,20.982,0,0,1,1070.167,280.944Zm0-39.414a18.457,18.457,0,1,0,18.457,18.457h0A18.479,18.479,0,0,0,1070.167,241.53Z" fill="#e60019"/><path d="M1070.167,273.732a1.25,1.25,0,0,1-1.121-.7l-3.769-7.637-8.427-1.225a1.25,1.25,0,0,1-.693-2.132l6.1-5.944-1.441-8.393a1.251,1.251,0,0,1,1.815-1.318l7.538,3.963,7.537-3.963a1.251,1.251,0,0,1,1.815,1.318l-1.441,8.393,6.1,5.944a1.25,1.25,0,0,1-.693,2.132l-8.426,1.225-3.769,7.637A1.25,1.25,0,0,1,1070.167,273.732Zm-10.451-11.668,6.571.955a1.254,1.254,0,0,1,.942.683l2.938,5.955,2.938-5.955a1.254,1.254,0,0,1,.942-.683l6.57-.955-4.754-4.635a1.252,1.252,0,0,1-.36-1.107l1.123-6.544-5.877,3.09a1.254,1.254,0,0,1-1.164,0l-5.878-3.091,1.123,6.545a1.252,1.252,0,0,1-.36,1.107Z" transform="matrix(0.819, 0.574, -0.574, 0.819, 342.373, -565.25)" fill="#e60019"/></g></svg>