<?xml version="1.0" encoding="utf-8"?>
<!-- Generator: Adobe Illustrator 23.0.1, SVG Export Plug-In . SVG Version: 6.00 Build 0)  -->
<svg version="1.1" id="Layer_1" xmlns="http://www.w3.org/2000/svg" xmlns:xlink="http://www.w3.org/1999/xlink" x="0px" y="0px"
	 viewBox="0 0 84.5 58.1" style="enable-background:new 0 0 84.5 58.1;" xml:space="preserve">
<style type="text/css">
	.st0{fill:#EC2426;}
</style>
<path class="st0" d="M83.2,58.1c-0.4,0-0.8-0.2-1-0.6l-29-43.3c-0.3-0.4-0.3-0.9-0.1-1.3c0.2-0.4,0.6-0.7,1.1-0.7H69L42.2,2.6
	l-26,9.8h14c0.5,0,0.9,0.3,1.1,0.7c0.2,0.4,0.2,0.9-0.1,1.3l-29,43.3c-0.4,0.6-1.2,0.7-1.7,0.3c-0.6-0.4-0.7-1.2-0.3-1.7l27.7-41.3
	H9.4c-0.6,0-1.1-0.4-1.2-1c-0.1-0.6,0.2-1.2,0.8-1.4L41.8,0.1c0.3-0.1,0.6-0.1,0.9,0l33.8,12.4c0.6,0.2,0.9,0.8,0.8,1.4
	c-0.1,0.6-0.6,1-1.2,1H56.5l27.7,41.3c0.4,0.6,0.2,1.3-0.3,1.7C83.7,58.1,83.5,58.1,83.2,58.1z"/>
<path class="st0" d="M42.2,58.1c-0.7,0-1.3-0.6-1.3-1.3v-14c0-0.7,0.6-1.3,1.3-1.3s1.3,0.6,1.3,1.3v14
	C43.5,57.6,42.9,58.1,42.2,58.1z"/>
<path class="st0" d="M42.2,35.8c-0.7,0-1.3-0.6-1.3-1.3v-11c0-0.7,0.6-1.3,1.3-1.3s1.3,0.6,1.3,1.3v11
	C43.5,35.2,42.9,35.8,42.2,35.8z"/>
<path class="st0" d="M42.2,16.3c-0.6,0-1.2-0.5-1.2-1.2v-8c0-0.6,0.5-1.2,1.2-1.2s1.2,0.5,1.2,1.2v8C43.4,15.8,42.9,16.3,42.2,16.3z
	"/>
</svg>
