<?xml version="1.0" encoding="utf-8"?>
<!-- Generator: Adobe Illustrator 23.0.1, SVG Export Plug-In . SVG Version: 6.00 Build 0)  -->
<svg version="1.1" id="Layer_1" xmlns="http://www.w3.org/2000/svg" xmlns:xlink="http://www.w3.org/1999/xlink" x="0px" y="0px"
	 viewBox="0 0 85.8 49.3" style="enable-background:new 0 0 85.8 49.3;" xml:space="preserve">
<style type="text/css">
	.st0{fill:#ED2024;}
</style>
<g transform="translate(-4.267 1.512)">
	<path class="st0" d="M73.1,47.8c-4.8,0-7.7-2-7.9-2.1l-17.3-12c-1-1.3-1.1-3.2-0.1-4.5c0.1-0.2,0.2-0.3,0.3-0.5
		c0.5-0.8,1.3-1.4,2.2-1.6c0.9-0.2,1.9,0,2.7,0.5c2.8,1.6,5.9,3.2,7.5,4l-0.3-0.7c-0.2-0.2-0.4-0.4-0.4-0.7L50.7,9.3
		c-0.7-1.8,0.1-3.8,1.8-4.7L53,4.3c1.2-0.5,2.6-0.3,3.5,0.5l-0.4-0.9c-0.8-1.9,0.1-4,1.9-5c2-0.8,4.1,0,5,1.9l0.7,1.6
		c0.2-1.2,0.9-2.2,2-2.8l0.4-0.3c1.8-0.7,3.9,0.1,4.7,1.9L77,15.6l0.1,0c-1-2.1-3.8-8.4-4.2-9.6c-0.1-0.2-0.2-0.5-0.3-0.7
		c-0.6-1.8,0.5-3.7,2.3-4.3c2.5-1,4.4,1.4,5.1,2.7C80.1,3.9,87,20.1,88.9,25c2.1,5.1,1.9,16.9-7.8,21C78.1,47.3,75.4,47.8,73.1,47.8
		z M49,32.7L66,44.4c0.2,0.2,5.8,3.9,14.5,0.2c8.4-3.5,9-14.2,7-19.1c-2-4.9-8.8-21.1-8.9-21.3c0,0,0,0,0,0c0,0-1.4-2.7-3.2-2
		l-0.1,0c-1,0.3-1.6,1.4-1.3,2.5c0,0.2,0.1,0.3,0.2,0.4l0.1,0.1c0.3,0.8,3.1,7,4.5,10.2l0.3,0.7l-3.3,1.5l0.1-0.9l-0.1-0.3L69.5,1.8
		c-0.5-1-1.6-1.5-2.7-1.1l-0.3,0.2c-1.1,0.5-1.6,1.7-1.1,2.8l5.9,13.7l0.8,1l-3.2,1.1l0.1-1.1c0,0,0,0,0,0l-0.1-0.2L61.7,1.4
		c-0.5-1.1-1.9-1.6-3.1-1.1c-1.1,0.5-1.6,1.9-1.1,3l7.1,16.8c0.2,0.3,0.3,0.6,0.3,0.9l0,0.5l-2.5,1.3l0.1-1.1l-0.1-0.2L56.3,6.8
		c-0.5-1-1.6-1.5-2.7-1.1l-0.3,0.2c-1.1,0.5-1.6,1.7-1.1,2.8L61,29.5h0.1l0.8,1.8c0.2,0.3,0.6,0.9,0.4,1.5c-0.1,0.3-0.3,0.6-0.7,0.7
		c-0.3,0.1-0.9,0.3-9.5-4.6c-0.5-0.3-1-0.4-1.6-0.3c-0.5,0.1-1,0.4-1.3,0.9c-0.1,0.1-0.1,0.2-0.2,0.3L49,30
		C48.4,30.8,48.4,31.9,49,32.7z"/>
	<path class="st0" d="M21.2,47.8c-2.3,0-5-0.4-8-1.7c-9.8-4.1-9.9-15.9-7.9-21c2-4.9,8.9-21.1,8.9-21.3c0.1-0.2,2.3-4,5.4-2.8
		c1.8,0.6,2.8,2.5,2.3,4.3c-0.1,0.3-0.2,0.5-0.4,0.8c-0.3,0.6-2.7,6.5-3.9,9.4l0.1,0.1L24,1.2c0.5-1.6,2.1-2.5,3.7-2.1
		c0.2,0.1,0.4,0.1,0.5,0.2l0.1,0.1l0.2,0.2c1.1,0.5,1.9,1.6,2,2.8l0.7-1.6c0.9-1.9,3.1-2.7,5-1.9c1.9,0.9,2.7,3.1,2,5l-0.4,0.9
		c1-0.7,2.3-0.9,3.5-0.4l0.2,0.1l0.2,0.2c1.7,0.8,2.5,2.9,1.8,4.7l-8.9,20.9c0,0.3-0.2,0.5-0.4,0.7L34,31.6c1.6-0.8,4.7-2.4,7.5-4
		c0.8-0.5,1.7-0.7,2.6-0.4c0.9,0.2,1.7,0.8,2.2,1.6c0.1,0.2,0.2,0.3,0.3,0.5c1,1.4,0.9,3.2-0.1,4.5l-0.2,0.2L29.2,45.7
		C29,45.8,26,47.8,21.2,47.8z M18.5,2.2c-1.6,0-2.8,2.2-2.9,2.2c0,0.1-6.9,16.3-8.9,21.2c-2,4.9-1.4,15.5,7.1,19.1
		c8.6,3.6,14.2-0.1,14.5-0.2l17.1-11.7c0.6-0.8,0.6-1.9,0-2.7l-0.1-0.2c0-0.1-0.1-0.2-0.2-0.3c-0.3-0.5-0.7-0.8-1.3-0.9
		c-0.5-0.1-1.1,0-1.5,0.3c-8.7,4.9-9.2,4.7-9.5,4.6c-0.3-0.1-0.6-0.4-0.7-0.7c-0.2-0.6,0.2-1.2,0.4-1.5l0.8-1.8h0.1l8.9-20.9
		c0.4-1.1-0.1-2.3-1.1-2.8l-0.2-0.1l-0.2-0.2c-1.1-0.4-2.2,0.1-2.7,1.2l-6.2,14.9l0.1,0.9l-2.5-1.2l0-0.5c0-0.3,0.1-0.6,0.3-0.9
		l7.1-16.8c0.5-1.2-0.1-2.5-1.2-3c-1.1-0.4-2.4,0.1-3,1.2l-7.2,17c0,0,0,0,0,0l0.1,1.1l-1.1-0.3l-2.1-0.7l0.8-1L29,3.7
		c0.4-1.1-0.1-2.3-1.1-2.8l-0.1-0.1l-0.2-0.2c-0.1,0-0.1-0.1-0.2-0.1c-0.8-0.2-1.7,0.3-1.9,1.1l0,0.1l-6.5,14.9l0.2,1l-3.3-1.5
		l0.3-0.7c0.2-0.4,3.9-9.4,4.3-10.3c0.1-0.2,0.2-0.3,0.2-0.5c0.3-1.1-0.3-2.2-1.3-2.5l-0.1,0C18.9,2.2,18.7,2.2,18.5,2.2z"/>
</g>
</svg>
