<svg xmlns="http://www.w3.org/2000/svg" width="41.914" height="41.914" viewBox="0 0 41.914 41.914"><path d="M1715.363,559.156a20.957,20.957,0,1,0,20.957,20.957A20.981,20.981,0,0,0,1715.363,559.156Zm0,2.5a18.473,18.473,0,0,1,18.291,16.117h-9.96a1.249,1.249,0,0,0-1.25,1.25v7.523H1720.5v-10.28a1.249,1.249,0,0,0-.651-1.1l-7-3.822a1.25,1.25,0,0,0-1.849,1.1v8.242h-4.055v-4.421a1.25,1.25,0,0,0-1.25-1.25h-8.057A18.48,18.48,0,0,1,1715.363,561.656Zm0,36.914a18.325,18.325,0,0,1-18.253-21.054h7.334v4.421a1.25,1.25,0,0,0,1.25,1.25h6.555a1.25,1.25,0,0,0,1.25-1.25v-7.386l4.5,2.457V587.8a1.25,1.25,0,0,0,1.25,1.25h4.445a1.25,1.25,0,0,0,1.25-1.25v-7.523h8.868A18.474,18.474,0,0,1,1715.363,598.57Z" transform="translate(-1694.406 -559.156)" fill="#ec1e24"/></svg>